<mxfile host="Electron" modified="2023-09-19T09:17:42.618Z" agent="Mozilla/5.0 (Windows NT 10.0; Win64; x64) AppleWebKit/537.36 (KHTML, like Gecko) draw.io/21.2.8 Chrome/112.0.5615.165 Electron/24.2.0 Safari/537.36" etag="8LiCQ_iCGkYHWDuez5PI" version="21.2.8" type="device" pages="7">
  <diagram name="message" id="IHcsd5ZvF5kc99Htb8mc">
    <mxGraphModel dx="1418" dy="820" grid="1" gridSize="10" guides="1" tooltips="1" connect="1" arrows="1" fold="1" page="1" pageScale="1" pageWidth="3300" pageHeight="4681" math="0" shadow="0">
      <root>
        <mxCell id="0" />
        <mxCell id="1" parent="0" />
        <mxCell id="G6ttOUlKWs4wm57Annwv-8" value="" style="rounded=0;whiteSpace=wrap;html=1;fillColor=#1e1e1e;strokeColor=#d6b656;" vertex="1" parent="1">
          <mxGeometry x="2040" y="215" width="970" height="340" as="geometry" />
        </mxCell>
        <mxCell id="G6ttOUlKWs4wm57Annwv-5" value="" style="rounded=0;whiteSpace=wrap;html=1;fillColor=#1e1e1e;strokeColor=#d6b656;" vertex="1" parent="1">
          <mxGeometry x="1170" y="220" width="740" height="340" as="geometry" />
        </mxCell>
        <mxCell id="G6ttOUlKWs4wm57Annwv-3" value="" style="rounded=0;whiteSpace=wrap;html=1;fillColor=#1e1e1e;strokeColor=#d6b656;" vertex="1" parent="1">
          <mxGeometry x="100" y="190" width="820" height="340" as="geometry" />
        </mxCell>
        <mxCell id="G6ttOUlKWs4wm57Annwv-1" value="&lt;font style=&quot;font-size: 48px;&quot;&gt;message: Commands and arguments&lt;/font&gt;" style="text;html=1;strokeColor=none;fillColor=none;align=center;verticalAlign=middle;whiteSpace=wrap;rounded=0;" vertex="1" parent="1">
          <mxGeometry x="10" y="90" width="960" height="30" as="geometry" />
        </mxCell>
        <mxCell id="G6ttOUlKWs4wm57Annwv-2" value="&lt;div style=&quot;color: rgb(212, 212, 212); background-color: rgb(30, 30, 30); font-family: Consolas, &amp;quot;Courier New&amp;quot;, monospace; font-weight: normal; font-size: 24px; line-height: 32px;&quot;&gt;&lt;div&gt;&lt;span style=&quot;color: #6a9955;&quot;&gt;# The message command. How it&#39;s generally used&lt;/span&gt;&lt;/div&gt;&lt;div&gt;&lt;span style=&quot;color: #569cd6;&quot;&gt;message&lt;/span&gt;&lt;span style=&quot;color: #d4d4d4;&quot;&gt;(&lt;/span&gt;&lt;span style=&quot;color: #ce9178;&quot;&gt;&quot;The sky is blue&quot;&lt;/span&gt;&lt;span style=&quot;color: #d4d4d4;&quot;&gt;)&lt;/span&gt;&lt;/div&gt;&lt;br&gt;&lt;div&gt;&lt;span style=&quot;color: #6a9955;&quot;&gt;#Bracket arguments. Can be used to print multiple lines&lt;/span&gt;&lt;/div&gt;&lt;div&gt;&lt;span style=&quot;color: #569cd6;&quot;&gt;message&lt;/span&gt;&lt;span style=&quot;color: #d4d4d4;&quot;&gt;([=[The&lt;/span&gt;&lt;/div&gt;&lt;div&gt;&lt;span style=&quot;color: #d4d4d4;&quot;&gt;&amp;nbsp; &amp;nbsp; sky&lt;/span&gt;&lt;/div&gt;&lt;div&gt;&lt;span style=&quot;color: #d4d4d4;&quot;&gt;&amp;nbsp; &amp;nbsp; is blue&lt;/span&gt;&lt;/div&gt;&lt;div&gt;&lt;span style=&quot;color: #d4d4d4;&quot;&gt;]=])&lt;/span&gt;&lt;/div&gt;&lt;/div&gt;" style="text;whiteSpace=wrap;html=1;" vertex="1" parent="1">
          <mxGeometry x="140" y="235" width="740" height="270" as="geometry" />
        </mxCell>
        <mxCell id="G6ttOUlKWs4wm57Annwv-4" value="&lt;div style=&quot;color: rgb(212, 212, 212); background-color: rgb(30, 30, 30); font-family: Consolas, &amp;quot;Courier New&amp;quot;, monospace; font-weight: normal; font-size: 24px; line-height: 32px;&quot;&gt;&lt;div&gt;&lt;span style=&quot;color: #6a9955;&quot;&gt;#Quoted arguments and escapce sequences&lt;/span&gt;&lt;/div&gt;&lt;div&gt;&lt;span style=&quot;color: #6a9955;&quot;&gt;#Escaping characters&lt;/span&gt;&lt;/div&gt;&lt;div&gt;&lt;span style=&quot;color: #569cd6;&quot;&gt;message&lt;/span&gt;&lt;span style=&quot;color: #d4d4d4;&quot;&gt;(&lt;/span&gt;&lt;span style=&quot;color: #ce9178;&quot;&gt;&quot;The sky is blue: \&quot; \n my friend&quot;&lt;/span&gt;&lt;span style=&quot;color: #d4d4d4;&quot;&gt;)&lt;/span&gt;&lt;/div&gt;&lt;div&gt;&lt;span style=&quot;color: #6a9955;&quot;&gt;#Multiple lines in quoted arguments. New to me&lt;/span&gt;&lt;/div&gt;&lt;div&gt;&lt;span style=&quot;color: #569cd6;&quot;&gt;message&lt;/span&gt;&lt;span style=&quot;color: #d4d4d4;&quot;&gt;(&lt;/span&gt;&lt;span style=&quot;color: #ce9178;&quot;&gt;&quot;With great power... &lt;/span&gt;&lt;/div&gt;&lt;div&gt;&lt;span style=&quot;color: #ce9178;&quot;&gt;&amp;nbsp; &amp;nbsp; &amp;nbsp; &amp;nbsp; &amp;nbsp; &amp;nbsp; comes great responsibility&quot;&lt;/span&gt;&lt;span style=&quot;color: #d4d4d4;&quot;&gt;)&lt;/span&gt;&lt;/div&gt;&lt;div&gt;&lt;span style=&quot;color: #6a9955;&quot;&gt;#Variable evaluation&lt;/span&gt;&lt;/div&gt;&lt;div&gt;&lt;span style=&quot;color: #569cd6;&quot;&gt;message&lt;/span&gt;&lt;span style=&quot;color: #d4d4d4;&quot;&gt;(&lt;/span&gt;&lt;span style=&quot;color: #ce9178;&quot;&gt;&quot;The cmake version is ${CMAKE_VERSION}&quot;&lt;/span&gt;&lt;span style=&quot;color: #d4d4d4;&quot;&gt;)&lt;/span&gt;&lt;/div&gt;&lt;/div&gt;" style="text;whiteSpace=wrap;html=1;" vertex="1" parent="1">
          <mxGeometry x="1220" y="250" width="640" height="270" as="geometry" />
        </mxCell>
        <mxCell id="G6ttOUlKWs4wm57Annwv-6" value="&lt;span style=&quot;font-size: 48px;&quot;&gt;Arguments in quotes&lt;/span&gt;" style="text;html=1;strokeColor=none;fillColor=none;align=center;verticalAlign=middle;whiteSpace=wrap;rounded=0;" vertex="1" parent="1">
          <mxGeometry x="1180" y="160" width="730" height="30" as="geometry" />
        </mxCell>
        <mxCell id="G6ttOUlKWs4wm57Annwv-7" value="&lt;div style=&quot;color: rgb(212, 212, 212); background-color: rgb(30, 30, 30); font-family: Consolas, &amp;quot;Courier New&amp;quot;, monospace; font-weight: normal; font-size: 24px; line-height: 32px;&quot;&gt;&lt;div&gt;&lt;span style=&quot;color: #6a9955;&quot;&gt;#Unquoted arguments. spaces and semicolons act as separatoers&lt;/span&gt;&lt;/div&gt;&lt;div&gt;&lt;span style=&quot;color: #569cd6;&quot;&gt;message&lt;/span&gt;&lt;span style=&quot;color: #d4d4d4;&quot;&gt;(The\ sky\ is blue) &lt;/span&gt;&lt;span style=&quot;color: #6a9955;&quot;&gt;# One argument, the spaces are escaped&lt;/span&gt;&lt;/div&gt;&lt;div&gt;&lt;span style=&quot;color: #569cd6;&quot;&gt;message&lt;/span&gt;&lt;span style=&quot;color: #d4d4d4;&quot;&gt;(Two arguments) &lt;/span&gt;&lt;span style=&quot;color: #6a9955;&quot;&gt;# Two arguments: the space acts as a separator&lt;/span&gt;&lt;/div&gt;&lt;div&gt;&lt;span style=&quot;color: #569cd6;&quot;&gt;message&lt;/span&gt;&lt;span style=&quot;color: #d4d4d4;&quot;&gt;(The;sky;is;blue) &lt;/span&gt;&lt;span style=&quot;color: #6a9955;&quot;&gt;# Four arguments: The ; acts as a separator&lt;/span&gt;&lt;/div&gt;&lt;/div&gt;" style="text;whiteSpace=wrap;html=1;" vertex="1" parent="1">
          <mxGeometry x="2070" y="310" width="940" height="140" as="geometry" />
        </mxCell>
        <mxCell id="G6ttOUlKWs4wm57Annwv-9" value="&lt;span style=&quot;font-size: 48px;&quot;&gt;Naked arguments&lt;/span&gt;" style="text;html=1;strokeColor=none;fillColor=none;align=center;verticalAlign=middle;whiteSpace=wrap;rounded=0;" vertex="1" parent="1">
          <mxGeometry x="2040" y="150" width="960" height="30" as="geometry" />
        </mxCell>
        <mxCell id="G6ttOUlKWs4wm57Annwv-10" value="&lt;font style=&quot;font-size: 48px;&quot;&gt;script&lt;/font&gt;" style="rounded=0;whiteSpace=wrap;html=1;fillColor=#dae8fc;strokeColor=#6c8ebf;" vertex="1" parent="1">
          <mxGeometry x="640" y="640" width="290" height="60" as="geometry" />
        </mxCell>
        <mxCell id="G6ttOUlKWs4wm57Annwv-11" value="&lt;font style=&quot;font-size: 48px;&quot;&gt;project&lt;/font&gt;" style="rounded=0;whiteSpace=wrap;html=1;fillColor=#fff2cc;strokeColor=#d6b656;" vertex="1" parent="1">
          <mxGeometry x="640" y="750" width="290" height="60" as="geometry" />
        </mxCell>
      </root>
    </mxGraphModel>
  </diagram>
  <diagram id="JA572BowkNHkZRi4ru32" name="variables">
    <mxGraphModel dx="1418" dy="820" grid="1" gridSize="10" guides="1" tooltips="1" connect="1" arrows="1" fold="1" page="1" pageScale="1" pageWidth="3300" pageHeight="4681" math="0" shadow="0">
      <root>
        <mxCell id="0" />
        <mxCell id="1" parent="0" />
        <mxCell id="Oa1LC0uv5_4n_cJcO_TU-13" value="" style="rounded=0;whiteSpace=wrap;html=1;fillColor=#1e1e1e;strokeColor=#d6b656;" vertex="1" parent="1">
          <mxGeometry x="1300" y="840" width="1045" height="440" as="geometry" />
        </mxCell>
        <mxCell id="Oa1LC0uv5_4n_cJcO_TU-10" value="" style="rounded=0;whiteSpace=wrap;html=1;fillColor=#1e1e1e;strokeColor=#d6b656;" vertex="1" parent="1">
          <mxGeometry x="95" y="790" width="930" height="240" as="geometry" />
        </mxCell>
        <mxCell id="Oa1LC0uv5_4n_cJcO_TU-7" value="" style="rounded=0;whiteSpace=wrap;html=1;fillColor=#1e1e1e;strokeColor=#d6b656;" vertex="1" parent="1">
          <mxGeometry x="2050" y="110" width="1030" height="490" as="geometry" />
        </mxCell>
        <mxCell id="Oa1LC0uv5_4n_cJcO_TU-4" value="" style="rounded=0;whiteSpace=wrap;html=1;fillColor=#1e1e1e;strokeColor=#d6b656;" vertex="1" parent="1">
          <mxGeometry x="1260" y="110" width="660" height="490" as="geometry" />
        </mxCell>
        <mxCell id="Oa1LC0uv5_4n_cJcO_TU-1" value="" style="rounded=0;whiteSpace=wrap;html=1;fillColor=#1e1e1e;strokeColor=#d6b656;" vertex="1" parent="1">
          <mxGeometry x="100" y="110" width="1070" height="490" as="geometry" />
        </mxCell>
        <mxCell id="evEdq5Kj51u6WEfhmswQ-1" value="&lt;div style=&quot;color: rgb(212, 212, 212); background-color: rgb(30, 30, 30); font-family: Consolas, &amp;quot;Courier New&amp;quot;, monospace; font-weight: normal; font-size: 24px; line-height: 32px;&quot;&gt;&lt;div&gt;&lt;span style=&quot;color: #6a9955;&quot;&gt;#Variables may only contain alphanumeric characters and underscores: https://cmake.org/cmake/help/book/mastering-cmake/chapter/Writing%20CMakeLists%20Files.html#variables&lt;/span&gt;&lt;/div&gt;&lt;br&gt;&lt;div&gt;&lt;span style=&quot;color: #569cd6;&quot;&gt;set&lt;/span&gt;&lt;span style=&quot;color: #d4d4d4;&quot;&gt;(var_1 &lt;/span&gt;&lt;span style=&quot;color: #ce9178;&quot;&gt;&quot;Text1&quot;&lt;/span&gt;&lt;span style=&quot;color: #d4d4d4;&quot;&gt;)&lt;/span&gt;&lt;/div&gt;&lt;div&gt;&lt;span style=&quot;color: #569cd6;&quot;&gt;set&lt;/span&gt;&lt;span style=&quot;color: #d4d4d4;&quot;&gt;([[var2]] &lt;/span&gt;&lt;span style=&quot;color: #ce9178;&quot;&gt;&quot;Text2&quot;&lt;/span&gt;&lt;span style=&quot;color: #d4d4d4;&quot;&gt;)&lt;/span&gt;&lt;/div&gt;&lt;div&gt;&lt;span style=&quot;color: #569cd6;&quot;&gt;set&lt;/span&gt;&lt;span style=&quot;color: #d4d4d4;&quot;&gt;(&lt;/span&gt;&lt;span style=&quot;color: #ce9178;&quot;&gt;&quot;var3&quot;&lt;/span&gt;&lt;span style=&quot;color: #d4d4d4;&quot;&gt; &lt;/span&gt;&lt;span style=&quot;color: #ce9178;&quot;&gt;&quot;Text3&quot;&lt;/span&gt;&lt;span style=&quot;color: #d4d4d4;&quot;&gt;)&lt;/span&gt;&lt;/div&gt;&lt;br&gt;&lt;div&gt;&lt;span style=&quot;color: #569cd6;&quot;&gt;message&lt;/span&gt;&lt;span style=&quot;color: #d4d4d4;&quot;&gt;(&lt;/span&gt;&lt;span style=&quot;color: #569cd6;&quot;&gt;${var_1}&lt;/span&gt;&lt;span style=&quot;color: #d4d4d4;&quot;&gt;)&lt;/span&gt;&lt;/div&gt;&lt;div&gt;&lt;span style=&quot;color: #569cd6;&quot;&gt;message&lt;/span&gt;&lt;span style=&quot;color: #d4d4d4;&quot;&gt;(&lt;/span&gt;&lt;span style=&quot;color: #569cd6;&quot;&gt;${var2}&lt;/span&gt;&lt;span style=&quot;color: #d4d4d4;&quot;&gt;)&lt;/span&gt;&lt;/div&gt;&lt;div&gt;&lt;span style=&quot;color: #569cd6;&quot;&gt;message&lt;/span&gt;&lt;span style=&quot;color: #d4d4d4;&quot;&gt;(&lt;/span&gt;&lt;span style=&quot;color: #569cd6;&quot;&gt;${var3}&lt;/span&gt;&lt;span style=&quot;color: #d4d4d4;&quot;&gt;)&lt;/span&gt;&lt;/div&gt;&lt;br&gt;&lt;div&gt;&lt;span style=&quot;color: #6a9955;&quot;&gt;#The bracket and quoted syntax allows spaces within variable names, but it&#39;s a bad practice and I won&#39;t explore that further.&lt;/span&gt;&lt;/div&gt;&lt;/div&gt;" style="text;whiteSpace=wrap;html=1;" vertex="1" parent="1">
          <mxGeometry x="170" y="140" width="980" height="450" as="geometry" />
        </mxCell>
        <mxCell id="Oa1LC0uv5_4n_cJcO_TU-2" value="&lt;font style=&quot;font-size: 48px;&quot;&gt;Declaring variables&lt;/font&gt;" style="text;html=1;strokeColor=none;fillColor=none;align=center;verticalAlign=middle;whiteSpace=wrap;rounded=0;" vertex="1" parent="1">
          <mxGeometry x="300" y="60" width="630" height="30" as="geometry" />
        </mxCell>
        <mxCell id="Oa1LC0uv5_4n_cJcO_TU-3" value="&lt;div style=&quot;color: rgb(212, 212, 212); background-color: rgb(30, 30, 30); font-family: Consolas, &amp;quot;Courier New&amp;quot;, monospace; font-weight: normal; font-size: 24px; line-height: 32px;&quot;&gt;&lt;div&gt;&lt;span style=&quot;color: #6a9955;&quot;&gt;#Variable references&lt;/span&gt;&lt;/div&gt;&lt;div&gt;&lt;span style=&quot;color: #569cd6;&quot;&gt;set&lt;/span&gt;&lt;span style=&quot;color: #d4d4d4;&quot;&gt;(one abc) &amp;nbsp; &amp;nbsp; &amp;nbsp; &amp;nbsp;&lt;/span&gt;&lt;span style=&quot;color: #6a9955;&quot;&gt;#abc&lt;/span&gt;&lt;/div&gt;&lt;div&gt;&lt;span style=&quot;color: #569cd6;&quot;&gt;set&lt;/span&gt;&lt;span style=&quot;color: #d4d4d4;&quot;&gt;(two &lt;/span&gt;&lt;span style=&quot;color: #569cd6;&quot;&gt;${one}&lt;/span&gt;&lt;span style=&quot;color: #d4d4d4;&quot;&gt;de) &amp;nbsp; &lt;/span&gt;&lt;span style=&quot;color: #6a9955;&quot;&gt;#abcde&lt;/span&gt;&lt;/div&gt;&lt;div&gt;&lt;span style=&quot;color: #569cd6;&quot;&gt;set&lt;/span&gt;&lt;span style=&quot;color: #d4d4d4;&quot;&gt;(three &amp;nbsp;&lt;/span&gt;&lt;span style=&quot;color: #569cd6;&quot;&gt;${two}&lt;/span&gt;&lt;span style=&quot;color: #d4d4d4;&quot;&gt; fg) &lt;/span&gt;&lt;span style=&quot;color: #6a9955;&quot;&gt;#abcde;fg&lt;/span&gt;&lt;/div&gt;&lt;div&gt;&lt;span style=&quot;color: #569cd6;&quot;&gt;set&lt;/span&gt;&lt;span style=&quot;color: #d4d4d4;&quot;&gt;(four thre) &amp;nbsp; &amp;nbsp;&lt;/span&gt;&lt;span style=&quot;color: #6a9955;&quot;&gt;#thre&lt;/span&gt;&lt;/div&gt;&lt;div&gt;&lt;span style=&quot;color: #569cd6;&quot;&gt;set&lt;/span&gt;&lt;span style=&quot;color: #d4d4d4;&quot;&gt;(five ${&lt;/span&gt;&lt;span style=&quot;color: #569cd6;&quot;&gt;${four}&lt;/span&gt;&lt;span style=&quot;color: #d4d4d4;&quot;&gt;e}) &lt;/span&gt;&lt;span style=&quot;color: #6a9955;&quot;&gt;#abcde;fg&lt;/span&gt;&lt;/div&gt;&lt;br&gt;&lt;div&gt;&lt;span style=&quot;color: #569cd6;&quot;&gt;message&lt;/span&gt;&lt;span style=&quot;color: #d4d4d4;&quot;&gt;(&lt;/span&gt;&lt;span style=&quot;color: #569cd6;&quot;&gt;${one}&lt;/span&gt;&lt;span style=&quot;color: #d4d4d4;&quot;&gt;)&lt;/span&gt;&lt;/div&gt;&lt;div&gt;&lt;span style=&quot;color: #569cd6;&quot;&gt;message&lt;/span&gt;&lt;span style=&quot;color: #d4d4d4;&quot;&gt;(&lt;/span&gt;&lt;span style=&quot;color: #569cd6;&quot;&gt;${two}&lt;/span&gt;&lt;span style=&quot;color: #d4d4d4;&quot;&gt;)&lt;/span&gt;&lt;/div&gt;&lt;div&gt;&lt;span style=&quot;color: #569cd6;&quot;&gt;message&lt;/span&gt;&lt;span style=&quot;color: #d4d4d4;&quot;&gt;(&lt;/span&gt;&lt;span style=&quot;color: #569cd6;&quot;&gt;${three}&lt;/span&gt;&lt;span style=&quot;color: #d4d4d4;&quot;&gt;)&lt;/span&gt;&lt;/div&gt;&lt;div&gt;&lt;span style=&quot;color: #569cd6;&quot;&gt;message&lt;/span&gt;&lt;span style=&quot;color: #d4d4d4;&quot;&gt;(&lt;/span&gt;&lt;span style=&quot;color: #569cd6;&quot;&gt;${four}&lt;/span&gt;&lt;span style=&quot;color: #d4d4d4;&quot;&gt;)&lt;/span&gt;&lt;/div&gt;&lt;div&gt;&lt;span style=&quot;color: #569cd6;&quot;&gt;message&lt;/span&gt;&lt;span style=&quot;color: #d4d4d4;&quot;&gt;(&lt;/span&gt;&lt;span style=&quot;color: #569cd6;&quot;&gt;${five}&lt;/span&gt;&lt;span style=&quot;color: #d4d4d4;&quot;&gt;)&lt;/span&gt;&lt;/div&gt;&lt;/div&gt;" style="text;whiteSpace=wrap;html=1;" vertex="1" parent="1">
          <mxGeometry x="1390" y="150" width="470" height="410" as="geometry" />
        </mxCell>
        <mxCell id="Oa1LC0uv5_4n_cJcO_TU-5" value="&lt;font style=&quot;font-size: 48px;&quot;&gt;Variable references&lt;/font&gt;" style="text;html=1;strokeColor=none;fillColor=none;align=center;verticalAlign=middle;whiteSpace=wrap;rounded=0;" vertex="1" parent="1">
          <mxGeometry x="1270" y="60" width="630" height="30" as="geometry" />
        </mxCell>
        <mxCell id="Oa1LC0uv5_4n_cJcO_TU-6" value="&lt;div style=&quot;color: rgb(212, 212, 212); background-color: rgb(30, 30, 30); font-family: Consolas, &amp;quot;Courier New&amp;quot;, monospace; font-weight: normal; font-size: 24px; line-height: 32px;&quot;&gt;&lt;div&gt;&lt;span style=&quot;color: #6a9955;&quot;&gt;#environment variables&lt;/span&gt;&lt;/div&gt;&lt;br&gt;&lt;div&gt;&lt;span style=&quot;color: #6a9955;&quot;&gt;#Your own environment variables will affect the running cmake instance.&lt;/span&gt;&lt;/div&gt;&lt;div&gt;&lt;span style=&quot;color: #6a9955;&quot;&gt;# They won&#39;t affect the system&lt;/span&gt;&lt;/div&gt;&lt;div&gt;&lt;span style=&quot;color: #569cd6;&quot;&gt;set&lt;/span&gt;&lt;span style=&quot;color: #d4d4d4;&quot;&gt;(ENV{MY_PATH} &lt;/span&gt;&lt;span style=&quot;color: #ce9178;&quot;&gt;&quot;C:/Program Files/parent/child/bin&quot;&lt;/span&gt;&lt;span style=&quot;color: #d4d4d4;&quot;&gt;)&lt;/span&gt;&lt;/div&gt;&lt;div&gt;&lt;span style=&quot;color: #569cd6;&quot;&gt;message&lt;/span&gt;&lt;span style=&quot;color: #d4d4d4;&quot;&gt;(&lt;/span&gt;&lt;span style=&quot;color: #569cd6;&quot;&gt;$ENV{MY_PATH}&lt;/span&gt;&lt;span style=&quot;color: #d4d4d4;&quot;&gt;)&lt;/span&gt;&lt;/div&gt;&lt;br&gt;&lt;div&gt;&lt;span style=&quot;color: #6a9955;&quot;&gt;#You can also read enviroment variables from the system&lt;/span&gt;&lt;/div&gt;&lt;div&gt;&lt;span style=&quot;color: #569cd6;&quot;&gt;message&lt;/span&gt;&lt;span style=&quot;color: #d4d4d4;&quot;&gt;(&lt;/span&gt;&lt;span style=&quot;color: #569cd6;&quot;&gt;$ENV{TMP}&lt;/span&gt;&lt;span style=&quot;color: #d4d4d4;&quot;&gt;)&lt;/span&gt;&lt;/div&gt;&lt;div&gt;&lt;span style=&quot;color: #569cd6;&quot;&gt;message&lt;/span&gt;&lt;span style=&quot;color: #d4d4d4;&quot;&gt;(&lt;/span&gt;&lt;span style=&quot;color: #569cd6;&quot;&gt;$ENV{ZES_ENABLE_SYSMAN}&lt;/span&gt;&lt;span style=&quot;color: #d4d4d4;&quot;&gt;)&lt;/span&gt;&lt;/div&gt;&lt;/div&gt;" style="text;whiteSpace=wrap;html=1;" vertex="1" parent="1">
          <mxGeometry x="2090" y="170" width="940" height="325" as="geometry" />
        </mxCell>
        <mxCell id="Oa1LC0uv5_4n_cJcO_TU-8" value="&lt;font style=&quot;font-size: 48px;&quot;&gt;Environment variables&lt;/font&gt;" style="text;html=1;strokeColor=none;fillColor=none;align=center;verticalAlign=middle;whiteSpace=wrap;rounded=0;" vertex="1" parent="1">
          <mxGeometry x="2245" y="70" width="630" height="30" as="geometry" />
        </mxCell>
        <mxCell id="Oa1LC0uv5_4n_cJcO_TU-9" value="&lt;div style=&quot;color: rgb(212, 212, 212); background-color: rgb(30, 30, 30); font-family: Consolas, &amp;quot;Courier New&amp;quot;, monospace; font-weight: normal; font-size: 24px; line-height: 32px;&quot;&gt;&lt;div&gt;&lt;span style=&quot;color: #6a9955;&quot;&gt;#Cache variables&lt;/span&gt;&lt;/div&gt;&lt;div&gt;&lt;span style=&quot;color: #569cd6;&quot;&gt;set&lt;/span&gt;&lt;span style=&quot;color: #d4d4d4;&quot;&gt;(cache_var &lt;/span&gt;&lt;span style=&quot;color: #ce9178;&quot;&gt;&quot;The value&quot;&lt;/span&gt;&lt;span style=&quot;color: #d4d4d4;&quot;&gt; &lt;/span&gt;&lt;span style=&quot;color: #569cd6;&quot;&gt;CACHE&lt;/span&gt;&lt;span style=&quot;color: #d4d4d4;&quot;&gt; &lt;/span&gt;&lt;span style=&quot;color: #569cd6;&quot;&gt;STRING&lt;/span&gt;&lt;span style=&quot;color: #d4d4d4;&quot;&gt; &lt;/span&gt;&lt;span style=&quot;color: #ce9178;&quot;&gt;&quot;This is a cache variable&quot;&lt;/span&gt;&lt;span style=&quot;color: #d4d4d4;&quot;&gt;)&lt;/span&gt;&lt;/div&gt;&lt;div&gt;&lt;span style=&quot;color: #569cd6;&quot;&gt;message&lt;/span&gt;&lt;span style=&quot;color: #d4d4d4;&quot;&gt;(&lt;/span&gt;&lt;span style=&quot;color: #569cd6;&quot;&gt;${cache_var}&lt;/span&gt;&lt;span style=&quot;color: #d4d4d4;&quot;&gt;)&lt;/span&gt;&lt;/div&gt;&lt;/div&gt;" style="text;whiteSpace=wrap;html=1;" vertex="1" parent="1">
          <mxGeometry x="120" y="840" width="1050" height="150" as="geometry" />
        </mxCell>
        <mxCell id="Oa1LC0uv5_4n_cJcO_TU-11" value="&lt;font style=&quot;font-size: 48px;&quot;&gt;CMake defined variables&lt;/font&gt;" style="text;html=1;strokeColor=none;fillColor=none;align=center;verticalAlign=middle;whiteSpace=wrap;rounded=0;" vertex="1" parent="1">
          <mxGeometry x="1505" y="780" width="630" height="30" as="geometry" />
        </mxCell>
        <mxCell id="Oa1LC0uv5_4n_cJcO_TU-12" value="&lt;div style=&quot;color: rgb(212, 212, 212); background-color: rgb(30, 30, 30); font-family: Consolas, &amp;quot;Courier New&amp;quot;, monospace; font-weight: normal; font-size: 24px; line-height: 32px;&quot;&gt;&lt;div&gt;&lt;span style=&quot;color: #6a9955;&quot;&gt;#CMake defined variables&lt;/span&gt;&lt;/div&gt;&lt;div&gt;&lt;span style=&quot;color: #6a9955;&quot;&gt;#https://cmake.org/cmake/help/latest/manual/cmake-variables.7.html&lt;/span&gt;&lt;/div&gt;&lt;div&gt;&lt;span style=&quot;color: #6a9955;&quot;&gt;#Keep in mind that some variables don&#39;t work on scripts. They are project oriented and work when you set up a project with a proper CMakeLists.txt file.&lt;/span&gt;&lt;/div&gt;&lt;br&gt;&lt;div&gt;&lt;span style=&quot;color: #6a9955;&quot;&gt;#Print the cmake version&lt;/span&gt;&lt;/div&gt;&lt;div&gt;&lt;span style=&quot;color: #569cd6;&quot;&gt;message&lt;/span&gt;&lt;span style=&quot;color: #d4d4d4;&quot;&gt;(&lt;/span&gt;&lt;span style=&quot;color: #569cd6;&quot;&gt;${CMAKE_VERSION}&lt;/span&gt;&lt;span style=&quot;color: #d4d4d4;&quot;&gt;)&lt;/span&gt;&lt;/div&gt;&lt;div&gt;&lt;span style=&quot;color: #6a9955;&quot;&gt;#Print the location of the cmake executable&lt;/span&gt;&lt;/div&gt;&lt;div&gt;&lt;span style=&quot;color: #569cd6;&quot;&gt;message&lt;/span&gt;&lt;span style=&quot;color: #d4d4d4;&quot;&gt;(&lt;/span&gt;&lt;span style=&quot;color: #569cd6;&quot;&gt;${CMAKE_COMMAND}&lt;/span&gt;&lt;span style=&quot;color: #d4d4d4;&quot;&gt;)&lt;/span&gt;&lt;/div&gt;&lt;div&gt;&lt;span style=&quot;color: #6a9955;&quot;&gt;#Print the location of the current list file&lt;/span&gt;&lt;/div&gt;&lt;div&gt;&lt;span style=&quot;color: #569cd6;&quot;&gt;message&lt;/span&gt;&lt;span style=&quot;color: #d4d4d4;&quot;&gt;(&lt;/span&gt;&lt;span style=&quot;color: #569cd6;&quot;&gt;${CMAKE_CURRENT_LIST_FILE}&lt;/span&gt;&lt;span style=&quot;color: #d4d4d4;&quot;&gt;)&lt;/span&gt;&lt;/div&gt;&lt;/div&gt;" style="text;whiteSpace=wrap;html=1;" vertex="1" parent="1">
          <mxGeometry x="1345" y="860" width="950" height="390" as="geometry" />
        </mxCell>
        <mxCell id="Oa1LC0uv5_4n_cJcO_TU-14" value="&lt;font style=&quot;font-size: 48px;&quot;&gt;Cache variables&lt;/font&gt;" style="text;html=1;strokeColor=none;fillColor=none;align=center;verticalAlign=middle;whiteSpace=wrap;rounded=0;" vertex="1" parent="1">
          <mxGeometry x="210" y="740" width="630" height="30" as="geometry" />
        </mxCell>
      </root>
    </mxGraphModel>
  </diagram>
  <diagram id="lM8vf7Lau-bTuLue_J_X" name="list_option">
    <mxGraphModel dx="1418" dy="820" grid="1" gridSize="10" guides="1" tooltips="1" connect="1" arrows="1" fold="1" page="1" pageScale="1" pageWidth="3300" pageHeight="4681" math="0" shadow="0">
      <root>
        <mxCell id="0" />
        <mxCell id="1" parent="0" />
        <mxCell id="Lg4qSUDhpVWdubXCZnyr-3" value="" style="rounded=0;whiteSpace=wrap;html=1;fillColor=#1e1e1e;strokeColor=#d6b656;" vertex="1" parent="1">
          <mxGeometry x="1480" y="390" width="800" height="310" as="geometry" />
        </mxCell>
        <mxCell id="oBccToiksqUeeYF5vJGr-1" value="" style="rounded=0;whiteSpace=wrap;html=1;fillColor=#1e1e1e;strokeColor=#d6b656;" vertex="1" parent="1">
          <mxGeometry x="130" y="110" width="940" height="770" as="geometry" />
        </mxCell>
        <mxCell id="Mend-SO37Bl0fgiHnTZr-1" value="&lt;div style=&quot;color: rgb(212, 212, 212); background-color: rgb(30, 30, 30); font-family: Consolas, &amp;quot;Courier New&amp;quot;, monospace; font-weight: normal; font-size: 24px; line-height: 32px;&quot;&gt;&lt;div&gt;&lt;span style=&quot;color: #6a9955;&quot;&gt;#Working with lists&lt;/span&gt;&lt;/div&gt;&lt;div&gt;&lt;span style=&quot;color: #569cd6;&quot;&gt;set&lt;/span&gt;&lt;span style=&quot;color: #d4d4d4;&quot;&gt;(STUDENTS1 Steve Morion Dave) &lt;/span&gt;&lt;span style=&quot;color: #6a9955;&quot;&gt;# A list of several elements&lt;/span&gt;&lt;/div&gt;&lt;div&gt;&lt;span style=&quot;color: #569cd6;&quot;&gt;set&lt;/span&gt;&lt;span style=&quot;color: #d4d4d4;&quot;&gt;(STUDENTS2 Curly;Boe;Victor;John) &lt;/span&gt;&lt;span style=&quot;color: #6a9955;&quot;&gt;# A list of several elements&lt;/span&gt;&lt;/div&gt;&lt;div&gt;&lt;span style=&quot;color: #569cd6;&quot;&gt;set&lt;/span&gt;&lt;span style=&quot;color: #d4d4d4;&quot;&gt;(STUDENTS3 &lt;/span&gt;&lt;span style=&quot;color: #ce9178;&quot;&gt;&quot;Mary Lily Domz&quot;&lt;/span&gt;&lt;span style=&quot;color: #d4d4d4;&quot;&gt;) &lt;/span&gt;&lt;span style=&quot;color: #6a9955;&quot;&gt;# One string&lt;/span&gt;&lt;/div&gt;&lt;br&gt;&lt;div&gt;&lt;span style=&quot;color: #569cd6;&quot;&gt;message&lt;/span&gt;&lt;span style=&quot;color: #d4d4d4;&quot;&gt;(&lt;/span&gt;&lt;span style=&quot;color: #569cd6;&quot;&gt;${STUDENTS1}&lt;/span&gt;&lt;span style=&quot;color: #d4d4d4;&quot;&gt;)&lt;/span&gt;&lt;/div&gt;&lt;div&gt;&lt;span style=&quot;color: #569cd6;&quot;&gt;message&lt;/span&gt;&lt;span style=&quot;color: #d4d4d4;&quot;&gt;(&lt;/span&gt;&lt;span style=&quot;color: #569cd6;&quot;&gt;${STUDENTS2}&lt;/span&gt;&lt;span style=&quot;color: #d4d4d4;&quot;&gt;)&lt;/span&gt;&lt;/div&gt;&lt;div&gt;&lt;span style=&quot;color: #569cd6;&quot;&gt;message&lt;/span&gt;&lt;span style=&quot;color: #d4d4d4;&quot;&gt;(&lt;/span&gt;&lt;span style=&quot;color: #569cd6;&quot;&gt;${STUDENTS3}&lt;/span&gt;&lt;span style=&quot;color: #d4d4d4;&quot;&gt;)&lt;/span&gt;&lt;/div&gt;&lt;br&gt;&lt;div&gt;&lt;span style=&quot;color: #569cd6;&quot;&gt;list&lt;/span&gt;&lt;span style=&quot;color: #d4d4d4;&quot;&gt;(LENGTH STUDENTS1 STUDENTS1_LENGTH)&lt;/span&gt;&lt;/div&gt;&lt;div&gt;&lt;span style=&quot;color: #569cd6;&quot;&gt;message&lt;/span&gt;&lt;span style=&quot;color: #d4d4d4;&quot;&gt;(&lt;/span&gt;&lt;span style=&quot;color: #ce9178;&quot;&gt;&quot;STUDENTS1 has ${STUDENTS1_LENGTH} elements&quot;&lt;/span&gt;&lt;span style=&quot;color: #d4d4d4;&quot;&gt;)&lt;/span&gt;&lt;/div&gt;&lt;br&gt;&lt;div&gt;&lt;span style=&quot;color: #569cd6;&quot;&gt;list&lt;/span&gt;&lt;span style=&quot;color: #d4d4d4;&quot;&gt;(APPEND STUDENTS2 &lt;/span&gt;&lt;span style=&quot;color: #ce9178;&quot;&gt;&quot;Kurk&quot;&lt;/span&gt;&lt;span style=&quot;color: #d4d4d4;&quot;&gt;)&lt;/span&gt;&lt;/div&gt;&lt;br&gt;&lt;div&gt;&lt;span style=&quot;color: #569cd6;&quot;&gt;list&lt;/span&gt;&lt;span style=&quot;color: #d4d4d4;&quot;&gt;(LENGTH STUDENTS2 STUDENTS2_LENGTH)&lt;/span&gt;&lt;/div&gt;&lt;div&gt;&lt;span style=&quot;color: #569cd6;&quot;&gt;message&lt;/span&gt;&lt;span style=&quot;color: #d4d4d4;&quot;&gt;(&lt;/span&gt;&lt;span style=&quot;color: #ce9178;&quot;&gt;&quot;STUDENTS2 has ${STUDENTS2_LENGTH} elements&quot;&lt;/span&gt;&lt;span style=&quot;color: #d4d4d4;&quot;&gt;)&lt;/span&gt;&lt;/div&gt;&lt;br&gt;&lt;div&gt;&lt;span style=&quot;color: #569cd6;&quot;&gt;list&lt;/span&gt;&lt;span style=&quot;color: #d4d4d4;&quot;&gt;(LENGTH STUDENTS3 STUDENTS3_LENGTH)&lt;/span&gt;&lt;/div&gt;&lt;div&gt;&lt;span style=&quot;color: #569cd6;&quot;&gt;message&lt;/span&gt;&lt;span style=&quot;color: #d4d4d4;&quot;&gt;(&lt;/span&gt;&lt;span style=&quot;color: #ce9178;&quot;&gt;&quot;STUDENTS3 has ${STUDENTS3_LENGTH} elements&quot;&lt;/span&gt;&lt;span style=&quot;color: #d4d4d4;&quot;&gt;)&lt;/span&gt;&lt;/div&gt;&lt;br&gt;&lt;div&gt;&lt;span style=&quot;color: #569cd6;&quot;&gt;list&lt;/span&gt;&lt;span style=&quot;color: #d4d4d4;&quot;&gt;(GET STUDENTS2 2 &amp;nbsp;THE_LEADER)&lt;/span&gt;&lt;/div&gt;&lt;div&gt;&lt;span style=&quot;color: #569cd6;&quot;&gt;message&lt;/span&gt;&lt;span style=&quot;color: #d4d4d4;&quot;&gt;(&lt;/span&gt;&lt;span style=&quot;color: #ce9178;&quot;&gt;&quot;The leader is ${THE_LEADER}&quot;&lt;/span&gt;&lt;span style=&quot;color: #d4d4d4;&quot;&gt;)&lt;/span&gt;&lt;/div&gt;&lt;/div&gt;" style="text;whiteSpace=wrap;html=1;" vertex="1" parent="1">
          <mxGeometry x="160" y="130" width="890" height="750" as="geometry" />
        </mxCell>
        <mxCell id="Lg4qSUDhpVWdubXCZnyr-1" value="&lt;font style=&quot;font-size: 48px;&quot;&gt;Working with lists&lt;/font&gt;" style="text;html=1;strokeColor=none;fillColor=none;align=center;verticalAlign=middle;whiteSpace=wrap;rounded=0;" vertex="1" parent="1">
          <mxGeometry x="300" y="60" width="630" height="30" as="geometry" />
        </mxCell>
        <mxCell id="Lg4qSUDhpVWdubXCZnyr-2" value="&lt;div style=&quot;color: rgb(212, 212, 212); background-color: rgb(30, 30, 30); font-family: Consolas, &amp;quot;Courier New&amp;quot;, monospace; font-weight: normal; font-size: 24px; line-height: 32px;&quot;&gt;&lt;div&gt;&lt;span style=&quot;color: #6a9955;&quot;&gt;#The option command&lt;/span&gt;&lt;/div&gt;&lt;div&gt;&lt;span style=&quot;color: #569cd6;&quot;&gt;option&lt;/span&gt;&lt;span style=&quot;color: #d4d4d4;&quot;&gt;(OPTIMIZE &lt;/span&gt;&lt;span style=&quot;color: #ce9178;&quot;&gt;&quot;Do we want to optimize the operation?&quot;&lt;/span&gt;&lt;span style=&quot;color: #d4d4d4;&quot;&gt;)&lt;/span&gt;&lt;/div&gt;&lt;div&gt;&lt;span style=&quot;color: #569cd6;&quot;&gt;message&lt;/span&gt;&lt;span style=&quot;color: #d4d4d4;&quot;&gt;(&lt;/span&gt;&lt;span style=&quot;color: #ce9178;&quot;&gt;&quot;Are we optimizing? ${OPTIMIZE}&quot;&lt;/span&gt;&lt;span style=&quot;color: #d4d4d4;&quot;&gt;)&lt;/span&gt;&lt;/div&gt;&lt;br&gt;&lt;div&gt;&lt;span style=&quot;color: #569cd6;&quot;&gt;if&lt;/span&gt;&lt;span style=&quot;color: #d4d4d4;&quot;&gt;(OPTIMIZE)&lt;/span&gt;&lt;/div&gt;&lt;div&gt;&lt;span style=&quot;color: #569cd6;&quot;&gt;&amp;nbsp; &amp;nbsp; message&lt;/span&gt;&lt;span style=&quot;color: #d4d4d4;&quot;&gt;(&lt;/span&gt;&lt;span style=&quot;color: #ce9178;&quot;&gt;&quot;We are optimizing.&quot;&lt;/span&gt;&lt;span style=&quot;color: #d4d4d4;&quot;&gt;)&lt;/span&gt;&lt;/div&gt;&lt;div&gt;&lt;span style=&quot;color: #569cd6;&quot;&gt;endif&lt;/span&gt;&lt;span style=&quot;color: #d4d4d4;&quot;&gt;()&lt;/span&gt;&lt;/div&gt;&lt;/div&gt;" style="text;whiteSpace=wrap;html=1;" vertex="1" parent="1">
          <mxGeometry x="1510" y="420" width="790" height="310" as="geometry" />
        </mxCell>
        <mxCell id="Lg4qSUDhpVWdubXCZnyr-4" value="&lt;font style=&quot;font-size: 48px;&quot;&gt;option&lt;/font&gt;" style="text;html=1;strokeColor=none;fillColor=none;align=center;verticalAlign=middle;whiteSpace=wrap;rounded=0;" vertex="1" parent="1">
          <mxGeometry x="1550" y="340" width="630" height="30" as="geometry" />
        </mxCell>
      </root>
    </mxGraphModel>
  </diagram>
  <diagram id="MgjY9Fbms7ptBK9oeSad" name="flow_control">
    <mxGraphModel dx="1418" dy="820" grid="1" gridSize="10" guides="1" tooltips="1" connect="1" arrows="1" fold="1" page="1" pageScale="1" pageWidth="3300" pageHeight="4681" math="0" shadow="0">
      <root>
        <mxCell id="0" />
        <mxCell id="1" parent="0" />
        <mxCell id="sGYoSXEd2-aoWnuSONWf-7" value="" style="rounded=0;whiteSpace=wrap;html=1;fillColor=#1e1e1e;strokeColor=#d6b656;" vertex="1" parent="1">
          <mxGeometry x="1510" y="1280" width="900" height="950" as="geometry" />
        </mxCell>
        <mxCell id="sGYoSXEd2-aoWnuSONWf-5" value="" style="rounded=0;whiteSpace=wrap;html=1;fillColor=#1e1e1e;strokeColor=#d6b656;" vertex="1" parent="1">
          <mxGeometry x="60" y="950" width="980" height="560" as="geometry" />
        </mxCell>
        <mxCell id="sGYoSXEd2-aoWnuSONWf-3" value="" style="rounded=0;whiteSpace=wrap;html=1;fillColor=#1e1e1e;strokeColor=#d6b656;" vertex="1" parent="1">
          <mxGeometry x="1300" y="260" width="1000" height="340" as="geometry" />
        </mxCell>
        <mxCell id="ccoJzOS-8qUkBXxegkcU-1" value="" style="rounded=0;whiteSpace=wrap;html=1;fillColor=#1e1e1e;strokeColor=#d6b656;" vertex="1" parent="1">
          <mxGeometry x="120" y="90" width="1010" height="700" as="geometry" />
        </mxCell>
        <mxCell id="dFk3yWdB3Tid07NRluID-1" value="&lt;div style=&quot;color: rgb(212, 212, 212); background-color: rgb(30, 30, 30); font-family: Consolas, &amp;quot;Courier New&amp;quot;, monospace; font-weight: normal; font-size: 24px; line-height: 32px;&quot;&gt;&lt;div&gt;&lt;span style=&quot;color: #6a9955;&quot;&gt;#The if command&lt;/span&gt;&lt;/div&gt;&lt;div&gt;&lt;span style=&quot;color: #6a9955;&quot;&gt;#https://cmake.org/cmake/help/latest/command/if.html&lt;/span&gt;&lt;/div&gt;&lt;br&gt;&lt;div&gt;&lt;span style=&quot;color: #6a9955;&quot;&gt;#[==[&lt;/span&gt;&lt;/div&gt;&lt;br&gt;&lt;div&gt;&lt;span style=&quot;color: #6a9955;&quot;&gt;Conditions with the if command&lt;/span&gt;&lt;/div&gt;&lt;div&gt;&lt;span style=&quot;color: #6a9955;&quot;&gt;&amp;nbsp; &amp;nbsp; . Generally, you pass the non dereferenced variable as a condition to the if command&lt;/span&gt;&lt;/div&gt;&lt;div&gt;&lt;span style=&quot;color: #6a9955;&quot;&gt;&amp;nbsp; &amp;nbsp; . &amp;nbsp;Here is my understanding of the command:&lt;/span&gt;&lt;/div&gt;&lt;div&gt;&lt;span style=&quot;color: #6a9955;&quot;&gt;&amp;nbsp; &amp;nbsp; &amp;nbsp; &amp;nbsp; . If the variable is undefined: evaluate to false&lt;/span&gt;&lt;/div&gt;&lt;div&gt;&lt;span style=&quot;color: #6a9955;&quot;&gt;&amp;nbsp; &amp;nbsp; &amp;nbsp; &amp;nbsp; . If the variable is defined and set to false: evaluate to false&lt;/span&gt;&lt;/div&gt;&lt;div&gt;&lt;span style=&quot;color: #6a9955;&quot;&gt;&amp;nbsp; &amp;nbsp; &amp;nbsp; &amp;nbsp; . Otherwise evaluate to true&lt;/span&gt;&lt;/div&gt;&lt;div&gt;&lt;span style=&quot;color: #6a9955;&quot;&gt;#]==]&lt;/span&gt;&lt;/div&gt;&lt;br&gt;&lt;div&gt;&lt;span style=&quot;color: #569cd6;&quot;&gt;set&lt;/span&gt;&lt;span style=&quot;color: #d4d4d4;&quot;&gt;(VAR1 &lt;/span&gt;&lt;span style=&quot;color: #569cd6;&quot;&gt;TRUE&lt;/span&gt;&lt;span style=&quot;color: #d4d4d4;&quot;&gt;)&lt;/span&gt;&lt;/div&gt;&lt;div&gt;&lt;span style=&quot;color: #569cd6;&quot;&gt;if&lt;/span&gt;&lt;span style=&quot;color: #d4d4d4;&quot;&gt;(VAR1)&lt;/span&gt;&lt;/div&gt;&lt;div&gt;&lt;span style=&quot;color: #569cd6;&quot;&gt;&amp;nbsp; &amp;nbsp; message&lt;/span&gt;&lt;span style=&quot;color: #d4d4d4;&quot;&gt;(&lt;/span&gt;&lt;span style=&quot;color: #ce9178;&quot;&gt;&quot;VAR1 is true&quot;&lt;/span&gt;&lt;span style=&quot;color: #d4d4d4;&quot;&gt;)&lt;/span&gt;&lt;/div&gt;&lt;div&gt;&lt;span style=&quot;color: #569cd6;&quot;&gt;else&lt;/span&gt;&lt;span style=&quot;color: #d4d4d4;&quot;&gt;()&lt;/span&gt;&lt;/div&gt;&lt;div&gt;&lt;span style=&quot;color: #569cd6;&quot;&gt;&amp;nbsp; &amp;nbsp; message&lt;/span&gt;&lt;span style=&quot;color: #d4d4d4;&quot;&gt;(&lt;/span&gt;&lt;span style=&quot;color: #ce9178;&quot;&gt;&quot;VAR1 is false&quot;&lt;/span&gt;&lt;span style=&quot;color: #d4d4d4;&quot;&gt;)&lt;/span&gt;&lt;/div&gt;&lt;div&gt;&lt;span style=&quot;color: #569cd6;&quot;&gt;endif&lt;/span&gt;&lt;span style=&quot;color: #d4d4d4;&quot;&gt;()&lt;/span&gt;&lt;/div&gt;&lt;/div&gt;" style="text;whiteSpace=wrap;html=1;" vertex="1" parent="1">
          <mxGeometry x="140" y="120" width="970" height="660" as="geometry" />
        </mxCell>
        <mxCell id="sGYoSXEd2-aoWnuSONWf-1" value="&lt;font style=&quot;font-size: 48px;&quot;&gt;The if command&lt;/font&gt;" style="text;html=1;strokeColor=none;fillColor=none;align=center;verticalAlign=middle;whiteSpace=wrap;rounded=0;" vertex="1" parent="1">
          <mxGeometry x="290" y="40" width="630" height="30" as="geometry" />
        </mxCell>
        <mxCell id="sGYoSXEd2-aoWnuSONWf-2" value="&lt;div style=&quot;color: rgb(212, 212, 212); background-color: rgb(30, 30, 30); font-family: Consolas, &amp;quot;Courier New&amp;quot;, monospace; font-weight: normal; font-size: 24px; line-height: 32px;&quot;&gt;&lt;div&gt;&lt;span style=&quot;color: #6a9955;&quot;&gt;#Directly passing TRUE or FALSE in an if command&lt;/span&gt;&lt;/div&gt;&lt;div&gt;&lt;span style=&quot;color: #6a9955;&quot;&gt;#The only way I can get this to print &quot;VAR2 is true&quot; is to set VAR2 to 1&lt;/span&gt;&lt;/div&gt;&lt;div&gt;&lt;span style=&quot;color: #6a9955;&quot;&gt;#We keep this in mind and move on for now. Avoid in practice&lt;/span&gt;&lt;/div&gt;&lt;div&gt;&lt;span style=&quot;color: #569cd6;&quot;&gt;set&lt;/span&gt;&lt;span style=&quot;color: #d4d4d4;&quot;&gt;(VAR2 1)&lt;/span&gt;&lt;/div&gt;&lt;div&gt;&lt;span style=&quot;color: #569cd6;&quot;&gt;if&lt;/span&gt;&lt;span style=&quot;color: #d4d4d4;&quot;&gt;(&lt;/span&gt;&lt;span style=&quot;color: #569cd6;&quot;&gt;${VAR2}&lt;/span&gt;&lt;span style=&quot;color: #d4d4d4;&quot;&gt;)&lt;/span&gt;&lt;/div&gt;&lt;div&gt;&lt;span style=&quot;color: #569cd6;&quot;&gt;&amp;nbsp; &amp;nbsp; message&lt;/span&gt;&lt;span style=&quot;color: #d4d4d4;&quot;&gt;(&lt;/span&gt;&lt;span style=&quot;color: #ce9178;&quot;&gt;&quot;VAR2 is true&quot;&lt;/span&gt;&lt;span style=&quot;color: #d4d4d4;&quot;&gt;)&lt;/span&gt;&lt;/div&gt;&lt;div&gt;&lt;span style=&quot;color: #569cd6;&quot;&gt;else&lt;/span&gt;&lt;span style=&quot;color: #d4d4d4;&quot;&gt;()&lt;/span&gt;&lt;/div&gt;&lt;div&gt;&lt;span style=&quot;color: #569cd6;&quot;&gt;&amp;nbsp; &amp;nbsp; message&lt;/span&gt;&lt;span style=&quot;color: #d4d4d4;&quot;&gt;(&lt;/span&gt;&lt;span style=&quot;color: #ce9178;&quot;&gt;&quot;VAR2 is false&quot;&lt;/span&gt;&lt;span style=&quot;color: #d4d4d4;&quot;&gt;)&lt;/span&gt;&lt;/div&gt;&lt;div&gt;&lt;span style=&quot;color: #569cd6;&quot;&gt;endif&lt;/span&gt;&lt;span style=&quot;color: #d4d4d4;&quot;&gt;()&lt;/span&gt;&lt;/div&gt;&lt;/div&gt;" style="text;whiteSpace=wrap;html=1;" vertex="1" parent="1">
          <mxGeometry x="1320" y="280" width="960" height="300" as="geometry" />
        </mxCell>
        <mxCell id="sGYoSXEd2-aoWnuSONWf-4" value="&lt;div style=&quot;color: rgb(212, 212, 212); background-color: rgb(30, 30, 30); font-family: Consolas, &amp;quot;Courier New&amp;quot;, monospace; font-weight: normal; font-size: 24px; line-height: 32px;&quot;&gt;&lt;div&gt;&lt;span style=&quot;color: #6a9955;&quot;&gt;#Variable expansion cmake docs: &lt;/span&gt;&lt;/div&gt;&lt;div&gt;&lt;span style=&quot;color: #6a9955;&quot;&gt;#https://cmake.org/cmake/help/latest/command/if.html#variable-expansion&lt;/span&gt;&lt;/div&gt;&lt;br&gt;&lt;div&gt;&lt;span style=&quot;color: #569cd6;&quot;&gt;set&lt;/span&gt;&lt;span style=&quot;color: #d4d4d4;&quot;&gt;(var1 &lt;/span&gt;&lt;span style=&quot;color: #569cd6;&quot;&gt;OFF&lt;/span&gt;&lt;span style=&quot;color: #d4d4d4;&quot;&gt;)&lt;/span&gt;&lt;/div&gt;&lt;div&gt;&lt;span style=&quot;color: #569cd6;&quot;&gt;set&lt;/span&gt;&lt;span style=&quot;color: #d4d4d4;&quot;&gt;(var2 &lt;/span&gt;&lt;span style=&quot;color: #ce9178;&quot;&gt;&quot;var1&quot;&lt;/span&gt;&lt;span style=&quot;color: #d4d4d4;&quot;&gt;)&lt;/span&gt;&lt;/div&gt;&lt;div&gt;&lt;span style=&quot;color: #569cd6;&quot;&gt;if&lt;/span&gt;&lt;span style=&quot;color: #d4d4d4;&quot;&gt;(&lt;/span&gt;&lt;span style=&quot;color: #569cd6;&quot;&gt;${var2}&lt;/span&gt;&lt;span style=&quot;color: #d4d4d4;&quot;&gt;)&lt;/span&gt;&lt;/div&gt;&lt;div&gt;&lt;span style=&quot;color: #569cd6;&quot;&gt;&amp;nbsp; &amp;nbsp; message&lt;/span&gt;&lt;span style=&quot;color: #d4d4d4;&quot;&gt;(&lt;/span&gt;&lt;span style=&quot;color: #ce9178;&quot;&gt;&quot;var2 is true&quot;&lt;/span&gt;&lt;span style=&quot;color: #d4d4d4;&quot;&gt;)&lt;/span&gt;&lt;/div&gt;&lt;div&gt;&lt;span style=&quot;color: #569cd6;&quot;&gt;else&lt;/span&gt;&lt;span style=&quot;color: #d4d4d4;&quot;&gt;()&lt;/span&gt;&lt;/div&gt;&lt;div&gt;&lt;span style=&quot;color: #569cd6;&quot;&gt;&amp;nbsp; &amp;nbsp; message&lt;/span&gt;&lt;span style=&quot;color: #d4d4d4;&quot;&gt;(&lt;/span&gt;&lt;span style=&quot;color: #ce9178;&quot;&gt;&quot;var2 is false&quot;&lt;/span&gt;&lt;span style=&quot;color: #d4d4d4;&quot;&gt;)&lt;/span&gt;&lt;/div&gt;&lt;div&gt;&lt;span style=&quot;color: #569cd6;&quot;&gt;endif&lt;/span&gt;&lt;span style=&quot;color: #d4d4d4;&quot;&gt;()&lt;/span&gt;&lt;/div&gt;&lt;br&gt;&lt;div&gt;&lt;span style=&quot;color: #569cd6;&quot;&gt;if&lt;/span&gt;&lt;span style=&quot;color: #d4d4d4;&quot;&gt;(var2)&lt;/span&gt;&lt;/div&gt;&lt;div&gt;&lt;span style=&quot;color: #569cd6;&quot;&gt;&amp;nbsp; &amp;nbsp; message&lt;/span&gt;&lt;span style=&quot;color: #d4d4d4;&quot;&gt;(&lt;/span&gt;&lt;span style=&quot;color: #ce9178;&quot;&gt;&quot;var2 is true&quot;&lt;/span&gt;&lt;span style=&quot;color: #d4d4d4;&quot;&gt;)&lt;/span&gt;&lt;/div&gt;&lt;div&gt;&lt;span style=&quot;color: #569cd6;&quot;&gt;else&lt;/span&gt;&lt;span style=&quot;color: #d4d4d4;&quot;&gt;()&lt;/span&gt;&lt;/div&gt;&lt;div&gt;&lt;span style=&quot;color: #569cd6;&quot;&gt;&amp;nbsp; &amp;nbsp; message&lt;/span&gt;&lt;span style=&quot;color: #d4d4d4;&quot;&gt;(&lt;/span&gt;&lt;span style=&quot;color: #ce9178;&quot;&gt;&quot;var2 is false&quot;&lt;/span&gt;&lt;span style=&quot;color: #d4d4d4;&quot;&gt;)&lt;/span&gt;&lt;/div&gt;&lt;div&gt;&lt;span style=&quot;color: #569cd6;&quot;&gt;endif&lt;/span&gt;&lt;span style=&quot;color: #d4d4d4;&quot;&gt;()&lt;/span&gt;&lt;/div&gt;&lt;/div&gt;" style="text;whiteSpace=wrap;html=1;" vertex="1" parent="1">
          <mxGeometry x="80" y="970" width="940" height="520" as="geometry" />
        </mxCell>
        <mxCell id="sGYoSXEd2-aoWnuSONWf-6" value="&lt;div style=&quot;color: rgb(212, 212, 212); background-color: rgb(30, 30, 30); font-family: Consolas, &amp;quot;Courier New&amp;quot;, monospace; font-weight: normal; font-size: 24px; line-height: 32px;&quot;&gt;&lt;div&gt;&lt;span style=&quot;color: #6a9955;&quot;&gt;#Other checks we can do&lt;/span&gt;&lt;/div&gt;&lt;div&gt;&lt;span style=&quot;color: #6a9955;&quot;&gt;#https://cmake.org/cmake/help/latest/command/if.html#comparisons&lt;/span&gt;&lt;/div&gt;&lt;br&gt;&lt;div&gt;&lt;span style=&quot;color: #6a9955;&quot;&gt;#EQUAL&lt;/span&gt;&lt;/div&gt;&lt;div&gt;&lt;span style=&quot;color: #569cd6;&quot;&gt;if&lt;/span&gt;&lt;span style=&quot;color: #d4d4d4;&quot;&gt;(2 &lt;/span&gt;&lt;span style=&quot;color: #569cd6;&quot;&gt;EQUAL&lt;/span&gt;&lt;span style=&quot;color: #d4d4d4;&quot;&gt; 1)&lt;/span&gt;&lt;/div&gt;&lt;div&gt;&lt;span style=&quot;color: #569cd6;&quot;&gt;&amp;nbsp; &amp;nbsp; message&lt;/span&gt;&lt;span style=&quot;color: #d4d4d4;&quot;&gt;(&lt;/span&gt;&lt;span style=&quot;color: #ce9178;&quot;&gt;&quot;2 EQUAL 1&quot;&lt;/span&gt;&lt;span style=&quot;color: #d4d4d4;&quot;&gt;)&lt;/span&gt;&lt;/div&gt;&lt;div&gt;&lt;span style=&quot;color: #569cd6;&quot;&gt;else&lt;/span&gt;&lt;span style=&quot;color: #d4d4d4;&quot;&gt;()&lt;/span&gt;&lt;/div&gt;&lt;div&gt;&lt;span style=&quot;color: #569cd6;&quot;&gt;&amp;nbsp; &amp;nbsp; message&lt;/span&gt;&lt;span style=&quot;color: #d4d4d4;&quot;&gt;(&lt;/span&gt;&lt;span style=&quot;color: #ce9178;&quot;&gt;&quot;2 NOT EQUAL 1&quot;&lt;/span&gt;&lt;span style=&quot;color: #d4d4d4;&quot;&gt;)&lt;/span&gt;&lt;/div&gt;&lt;div&gt;&lt;span style=&quot;color: #569cd6;&quot;&gt;endif&lt;/span&gt;&lt;span style=&quot;color: #d4d4d4;&quot;&gt;()&lt;/span&gt;&lt;/div&gt;&lt;br&gt;&lt;br&gt;&lt;div&gt;&lt;span style=&quot;color: #6a9955;&quot;&gt;#LESS&lt;/span&gt;&lt;/div&gt;&lt;div&gt;&lt;span style=&quot;color: #6a9955;&quot;&gt;# set(DOG 13)&lt;/span&gt;&lt;/div&gt;&lt;div&gt;&lt;span style=&quot;color: #6a9955;&quot;&gt;# set(PIG 12)&lt;/span&gt;&lt;/div&gt;&lt;br&gt;&lt;div&gt;&lt;span style=&quot;color: #569cd6;&quot;&gt;if&lt;/span&gt;&lt;span style=&quot;color: #d4d4d4;&quot;&gt;(PIG &lt;/span&gt;&lt;span style=&quot;color: #569cd6;&quot;&gt;LESS&lt;/span&gt;&lt;span style=&quot;color: #d4d4d4;&quot;&gt; DOG)&lt;/span&gt;&lt;/div&gt;&lt;div&gt;&lt;span style=&quot;color: #569cd6;&quot;&gt;&amp;nbsp; &amp;nbsp; message&lt;/span&gt;&lt;span style=&quot;color: #d4d4d4;&quot;&gt;(&lt;/span&gt;&lt;span style=&quot;color: #ce9178;&quot;&gt;&quot;PIG LESS THAN DOG&quot;&lt;/span&gt;&lt;span style=&quot;color: #d4d4d4;&quot;&gt;)&lt;/span&gt;&lt;/div&gt;&lt;div&gt;&lt;span style=&quot;color: #569cd6;&quot;&gt;else&lt;/span&gt;&lt;span style=&quot;color: #d4d4d4;&quot;&gt;()&lt;/span&gt;&lt;/div&gt;&lt;div&gt;&lt;span style=&quot;color: #569cd6;&quot;&gt;&amp;nbsp; &amp;nbsp; message&lt;/span&gt;&lt;span style=&quot;color: #d4d4d4;&quot;&gt;(&lt;/span&gt;&lt;span style=&quot;color: #ce9178;&quot;&gt;&quot;PIG NOT LESS THAN DOG&quot;&lt;/span&gt;&lt;span style=&quot;color: #d4d4d4;&quot;&gt;)&lt;/span&gt;&lt;/div&gt;&lt;div&gt;&lt;span style=&quot;color: #569cd6;&quot;&gt;endif&lt;/span&gt;&lt;span style=&quot;color: #d4d4d4;&quot;&gt;()&lt;/span&gt;&lt;/div&gt;&lt;br&gt;&lt;br&gt;&lt;div&gt;&lt;span style=&quot;color: #6a9955;&quot;&gt;#STRLESS_EQUAL&lt;/span&gt;&lt;/div&gt;&lt;div&gt;&lt;span style=&quot;color: #569cd6;&quot;&gt;if&lt;/span&gt;&lt;span style=&quot;color: #d4d4d4;&quot;&gt;(PIG STRLESS_EQUAL DOG)&lt;/span&gt;&lt;/div&gt;&lt;div&gt;&lt;span style=&quot;color: #569cd6;&quot;&gt;&amp;nbsp; &amp;nbsp; message&lt;/span&gt;&lt;span style=&quot;color: #d4d4d4;&quot;&gt;(&lt;/span&gt;&lt;span style=&quot;color: #ce9178;&quot;&gt;&quot;PIG LESS THAN OR EQUAL TO DOG&quot;&lt;/span&gt;&lt;span style=&quot;color: #d4d4d4;&quot;&gt;)&lt;/span&gt;&lt;/div&gt;&lt;div&gt;&lt;span style=&quot;color: #569cd6;&quot;&gt;else&lt;/span&gt;&lt;span style=&quot;color: #d4d4d4;&quot;&gt;()&lt;/span&gt;&lt;/div&gt;&lt;div&gt;&lt;span style=&quot;color: #569cd6;&quot;&gt;&amp;nbsp; &amp;nbsp; message&lt;/span&gt;&lt;span style=&quot;color: #d4d4d4;&quot;&gt;(&lt;/span&gt;&lt;span style=&quot;color: #ce9178;&quot;&gt;&quot;PIG NOT LESS THAN OR EQUAL TO DOG&quot;&lt;/span&gt;&lt;span style=&quot;color: #d4d4d4;&quot;&gt;)&lt;/span&gt;&lt;/div&gt;&lt;div&gt;&lt;span style=&quot;color: #569cd6;&quot;&gt;endif&lt;/span&gt;&lt;span style=&quot;color: #d4d4d4;&quot;&gt;()&lt;/span&gt;&lt;/div&gt;&lt;/div&gt;" style="text;whiteSpace=wrap;html=1;" vertex="1" parent="1">
          <mxGeometry x="1530" y="1290" width="870" height="980" as="geometry" />
        </mxCell>
      </root>
    </mxGraphModel>
  </diagram>
  <diagram id="WjzCdakYY3zmie3oHMWN" name="loops">
    <mxGraphModel dx="1418" dy="820" grid="1" gridSize="10" guides="1" tooltips="1" connect="1" arrows="1" fold="1" page="1" pageScale="1" pageWidth="3300" pageHeight="4681" math="0" shadow="0">
      <root>
        <mxCell id="0" />
        <mxCell id="1" parent="0" />
        <mxCell id="5gF48A2F2XsniXV5--mg-3" value="" style="rounded=0;whiteSpace=wrap;html=1;fillColor=#1e1e1e;strokeColor=#d6b656;" vertex="1" parent="1">
          <mxGeometry x="1180" y="120" width="810" height="670" as="geometry" />
        </mxCell>
        <mxCell id="r0crBcBK_EDh4DxW_0mZ-1" value="" style="rounded=0;whiteSpace=wrap;html=1;fillColor=#1e1e1e;strokeColor=#d6b656;" vertex="1" parent="1">
          <mxGeometry x="110" y="140" width="780" height="310" as="geometry" />
        </mxCell>
        <mxCell id="XoZ8ExECID9-sNlsnLn5-1" value="&lt;div style=&quot;color: rgb(212, 212, 212); background-color: rgb(30, 30, 30); font-family: Consolas, &amp;quot;Courier New&amp;quot;, monospace; font-weight: normal; font-size: 24px; line-height: 32px;&quot;&gt;&lt;div&gt;&lt;span style=&quot;color: #6a9955;&quot;&gt;#Foreach Loop&lt;/span&gt;&lt;/div&gt;&lt;div&gt;&lt;span style=&quot;color: #6a9955;&quot;&gt;# # Define a list of names&lt;/span&gt;&lt;/div&gt;&lt;div&gt;&lt;span style=&quot;color: #569cd6;&quot;&gt;set&lt;/span&gt;&lt;span style=&quot;color: #d4d4d4;&quot;&gt;(&lt;/span&gt;&lt;span style=&quot;color: #569cd6;&quot;&gt;names&lt;/span&gt;&lt;span style=&quot;color: #d4d4d4;&quot;&gt; &lt;/span&gt;&lt;span style=&quot;color: #ce9178;&quot;&gt;&quot;Alice&quot;&lt;/span&gt;&lt;span style=&quot;color: #d4d4d4;&quot;&gt; &lt;/span&gt;&lt;span style=&quot;color: #ce9178;&quot;&gt;&quot;Bob&quot;&lt;/span&gt;&lt;span style=&quot;color: #d4d4d4;&quot;&gt; &lt;/span&gt;&lt;span style=&quot;color: #ce9178;&quot;&gt;&quot;Charlie&quot;&lt;/span&gt;&lt;span style=&quot;color: #d4d4d4;&quot;&gt; &lt;/span&gt;&lt;span style=&quot;color: #ce9178;&quot;&gt;&quot;David&quot;&lt;/span&gt;&lt;span style=&quot;color: #d4d4d4;&quot;&gt; &lt;/span&gt;&lt;span style=&quot;color: #ce9178;&quot;&gt;&quot;Eve&quot;&lt;/span&gt;&lt;span style=&quot;color: #d4d4d4;&quot;&gt;)&lt;/span&gt;&lt;/div&gt;&lt;br&gt;&lt;div&gt;&lt;span style=&quot;color: #6a9955;&quot;&gt;# Iterate through the list of names using a foreach loop&lt;/span&gt;&lt;/div&gt;&lt;div&gt;&lt;span style=&quot;color: #569cd6;&quot;&gt;foreach&lt;/span&gt;&lt;span style=&quot;color: #d4d4d4;&quot;&gt;(&lt;/span&gt;&lt;span style=&quot;color: #569cd6;&quot;&gt;name&lt;/span&gt;&lt;span style=&quot;color: #d4d4d4;&quot;&gt; &lt;/span&gt;&lt;span style=&quot;color: #569cd6;&quot;&gt;${names}&lt;/span&gt;&lt;span style=&quot;color: #d4d4d4;&quot;&gt;)&lt;/span&gt;&lt;/div&gt;&lt;div&gt;&lt;span style=&quot;color: #569cd6;&quot;&gt;&amp;nbsp; &amp;nbsp; message&lt;/span&gt;&lt;span style=&quot;color: #d4d4d4;&quot;&gt;(&lt;/span&gt;&lt;span style=&quot;color: #ce9178;&quot;&gt;&quot;Name: ${name}&quot;&lt;/span&gt;&lt;span style=&quot;color: #d4d4d4;&quot;&gt;)&lt;/span&gt;&lt;/div&gt;&lt;div&gt;&lt;span style=&quot;color: #569cd6;&quot;&gt;endforeach&lt;/span&gt;&lt;span style=&quot;color: #d4d4d4;&quot;&gt;()&lt;/span&gt;&lt;/div&gt;&lt;/div&gt;" style="text;whiteSpace=wrap;html=1;" vertex="1" parent="1">
          <mxGeometry x="130" y="160" width="750" height="260" as="geometry" />
        </mxCell>
        <mxCell id="5gF48A2F2XsniXV5--mg-1" value="&lt;font style=&quot;font-size: 48px;&quot;&gt;foreach&lt;/font&gt;" style="text;html=1;strokeColor=none;fillColor=none;align=center;verticalAlign=middle;whiteSpace=wrap;rounded=0;" vertex="1" parent="1">
          <mxGeometry x="430" y="90" width="60" height="30" as="geometry" />
        </mxCell>
        <mxCell id="5gF48A2F2XsniXV5--mg-2" value="&lt;div style=&quot;color: rgb(212, 212, 212); background-color: rgb(30, 30, 30); font-family: Consolas, &amp;quot;Courier New&amp;quot;, monospace; font-weight: normal; font-size: 24px; line-height: 32px;&quot;&gt;&lt;div&gt;&lt;span style=&quot;color: #6a9955;&quot;&gt;#While Loop&lt;/span&gt;&lt;/div&gt;&lt;div&gt;&lt;span style=&quot;color: #6a9955;&quot;&gt;# Define a list of names&lt;/span&gt;&lt;/div&gt;&lt;div&gt;&lt;span style=&quot;color: #569cd6;&quot;&gt;set&lt;/span&gt;&lt;span style=&quot;color: #d4d4d4;&quot;&gt;(&lt;/span&gt;&lt;span style=&quot;color: #569cd6;&quot;&gt;names&lt;/span&gt;&lt;span style=&quot;color: #d4d4d4;&quot;&gt; &lt;/span&gt;&lt;span style=&quot;color: #ce9178;&quot;&gt;&quot;Alice&quot;&lt;/span&gt;&lt;span style=&quot;color: #d4d4d4;&quot;&gt; &lt;/span&gt;&lt;span style=&quot;color: #ce9178;&quot;&gt;&quot;Bob&quot;&lt;/span&gt;&lt;span style=&quot;color: #d4d4d4;&quot;&gt; &lt;/span&gt;&lt;span style=&quot;color: #ce9178;&quot;&gt;&quot;Charlie&quot;&lt;/span&gt;&lt;span style=&quot;color: #d4d4d4;&quot;&gt; &lt;/span&gt;&lt;span style=&quot;color: #ce9178;&quot;&gt;&quot;David&quot;&lt;/span&gt;&lt;span style=&quot;color: #d4d4d4;&quot;&gt; &lt;/span&gt;&lt;span style=&quot;color: #ce9178;&quot;&gt;&quot;Eve&quot;&lt;/span&gt;&lt;span style=&quot;color: #d4d4d4;&quot;&gt;)&lt;/span&gt;&lt;/div&gt;&lt;br&gt;&lt;div&gt;&lt;span style=&quot;color: #6a9955;&quot;&gt;# Get the number of names in the list&lt;/span&gt;&lt;/div&gt;&lt;div&gt;&lt;span style=&quot;color: #569cd6;&quot;&gt;list&lt;/span&gt;&lt;span style=&quot;color: #d4d4d4;&quot;&gt;(LENGTH &lt;/span&gt;&lt;span style=&quot;color: #569cd6;&quot;&gt;names&lt;/span&gt;&lt;span style=&quot;color: #d4d4d4;&quot;&gt; num_names)&lt;/span&gt;&lt;/div&gt;&lt;br&gt;&lt;div&gt;&lt;span style=&quot;color: #6a9955;&quot;&gt;# Initialize a counter variable&lt;/span&gt;&lt;/div&gt;&lt;div&gt;&lt;span style=&quot;color: #569cd6;&quot;&gt;set&lt;/span&gt;&lt;span style=&quot;color: #d4d4d4;&quot;&gt;(counter 0)&lt;/span&gt;&lt;/div&gt;&lt;br&gt;&lt;div&gt;&lt;span style=&quot;color: #6a9955;&quot;&gt;# Create a while loop to iterate through the list of names&lt;/span&gt;&lt;/div&gt;&lt;div&gt;&lt;span style=&quot;color: #569cd6;&quot;&gt;while&lt;/span&gt;&lt;span style=&quot;color: #d4d4d4;&quot;&gt;(counter &lt;/span&gt;&lt;span style=&quot;color: #569cd6;&quot;&gt;LESS&lt;/span&gt;&lt;span style=&quot;color: #d4d4d4;&quot;&gt; num_names)&lt;/span&gt;&lt;/div&gt;&lt;div&gt;&lt;span style=&quot;color: #569cd6;&quot;&gt;&amp;nbsp; &amp;nbsp; list&lt;/span&gt;&lt;span style=&quot;color: #d4d4d4;&quot;&gt;(GET &lt;/span&gt;&lt;span style=&quot;color: #569cd6;&quot;&gt;names&lt;/span&gt;&lt;span style=&quot;color: #d4d4d4;&quot;&gt; &lt;/span&gt;&lt;span style=&quot;color: #569cd6;&quot;&gt;${counter}&lt;/span&gt;&lt;span style=&quot;color: #d4d4d4;&quot;&gt; &lt;/span&gt;&lt;span style=&quot;color: #569cd6;&quot;&gt;name&lt;/span&gt;&lt;span style=&quot;color: #d4d4d4;&quot;&gt;)&lt;/span&gt;&lt;/div&gt;&lt;br&gt;&lt;div&gt;&lt;span style=&quot;color: #d4d4d4;&quot;&gt;&amp;nbsp; &amp;nbsp; &lt;/span&gt;&lt;span style=&quot;color: #6a9955;&quot;&gt;# Print the name&lt;/span&gt;&lt;/div&gt;&lt;div&gt;&lt;span style=&quot;color: #569cd6;&quot;&gt;&amp;nbsp; &amp;nbsp; message&lt;/span&gt;&lt;span style=&quot;color: #d4d4d4;&quot;&gt;(&lt;/span&gt;&lt;span style=&quot;color: #ce9178;&quot;&gt;&quot;Name: ${name}&quot;&lt;/span&gt;&lt;span style=&quot;color: #d4d4d4;&quot;&gt;)&lt;/span&gt;&lt;/div&gt;&lt;br&gt;&lt;div&gt;&lt;span style=&quot;color: #d4d4d4;&quot;&gt;&amp;nbsp; &amp;nbsp; &lt;/span&gt;&lt;span style=&quot;color: #6a9955;&quot;&gt;# Increment the counter&lt;/span&gt;&lt;/div&gt;&lt;div&gt;&lt;span style=&quot;color: #569cd6;&quot;&gt;&amp;nbsp; &amp;nbsp; math&lt;/span&gt;&lt;span style=&quot;color: #d4d4d4;&quot;&gt;(EXPR counter &lt;/span&gt;&lt;span style=&quot;color: #ce9178;&quot;&gt;&quot;${counter} + 1&quot;&lt;/span&gt;&lt;span style=&quot;color: #d4d4d4;&quot;&gt;)&lt;/span&gt;&lt;/div&gt;&lt;div&gt;&lt;span style=&quot;color: #569cd6;&quot;&gt;endwhile&lt;/span&gt;&lt;span style=&quot;color: #d4d4d4;&quot;&gt;()&lt;/span&gt;&lt;/div&gt;&lt;/div&gt;" style="text;whiteSpace=wrap;html=1;" vertex="1" parent="1">
          <mxGeometry x="1200" y="120" width="770" height="660" as="geometry" />
        </mxCell>
        <mxCell id="5gF48A2F2XsniXV5--mg-4" value="&lt;font style=&quot;font-size: 48px;&quot;&gt;while&lt;/font&gt;" style="text;html=1;strokeColor=none;fillColor=none;align=center;verticalAlign=middle;whiteSpace=wrap;rounded=0;" vertex="1" parent="1">
          <mxGeometry x="1610" y="70" width="60" height="30" as="geometry" />
        </mxCell>
      </root>
    </mxGraphModel>
  </diagram>
  <diagram id="nmkO8fuGO-srbUgAvzbJ" name="functions">
    <mxGraphModel dx="1418" dy="820" grid="1" gridSize="10" guides="1" tooltips="1" connect="1" arrows="1" fold="1" page="1" pageScale="1" pageWidth="3300" pageHeight="4681" math="0" shadow="0">
      <root>
        <mxCell id="0" />
        <mxCell id="1" parent="0" />
        <mxCell id="yFdaJYSu8_X2br-lyUkt-5" value="" style="rounded=0;whiteSpace=wrap;html=1;fillColor=#1e1e1e;strokeColor=#d6b656;" vertex="1" parent="1">
          <mxGeometry x="1570" y="1150" width="690" height="310" as="geometry" />
        </mxCell>
        <mxCell id="yFdaJYSu8_X2br-lyUkt-3" value="" style="rounded=0;whiteSpace=wrap;html=1;fillColor=#1e1e1e;strokeColor=#d6b656;" vertex="1" parent="1">
          <mxGeometry x="1580" y="450" width="670" height="650" as="geometry" />
        </mxCell>
        <mxCell id="EsLOmzRkmS6ti2QbavTl-1" value="" style="rounded=0;whiteSpace=wrap;html=1;fillColor=#1e1e1e;strokeColor=#d6b656;" vertex="1" parent="1">
          <mxGeometry x="110" y="100" width="950" height="690" as="geometry" />
        </mxCell>
        <mxCell id="p1A_nl_b4DS86s9L051Q-1" value="&lt;div style=&quot;color: rgb(212, 212, 212); background-color: rgb(30, 30, 30); font-family: Consolas, &amp;quot;Courier New&amp;quot;, monospace; font-weight: normal; font-size: 24px; line-height: 32px;&quot;&gt;&lt;div&gt;&lt;span style=&quot;color: #6a9955;&quot;&gt;# A function that mimicks the return mechanism in languages like C++&lt;/span&gt;&lt;/div&gt;&lt;div&gt;&lt;span style=&quot;color: #569cd6;&quot;&gt;function&lt;/span&gt;&lt;span style=&quot;color: #d4d4d4;&quot;&gt;(ModifyGlobalVariables VAR1 VAR2)&lt;/span&gt;&lt;/div&gt;&lt;div&gt;&lt;span style=&quot;color: #569cd6;&quot;&gt;&amp;nbsp; &amp;nbsp; set&lt;/span&gt;&lt;span style=&quot;color: #d4d4d4;&quot;&gt;(&lt;/span&gt;&lt;span style=&quot;color: #569cd6;&quot;&gt;${VAR1}&lt;/span&gt;&lt;span style=&quot;color: #d4d4d4;&quot;&gt; &lt;/span&gt;&lt;span style=&quot;color: #ce9178;&quot;&gt;&quot;New Value for VAR1&quot;&lt;/span&gt;&lt;span style=&quot;color: #d4d4d4;&quot;&gt; PARENT_SCOPE)&lt;/span&gt;&lt;/div&gt;&lt;div&gt;&lt;span style=&quot;color: #569cd6;&quot;&gt;&amp;nbsp; &amp;nbsp; set&lt;/span&gt;&lt;span style=&quot;color: #d4d4d4;&quot;&gt;(&lt;/span&gt;&lt;span style=&quot;color: #569cd6;&quot;&gt;${VAR2}&lt;/span&gt;&lt;span style=&quot;color: #d4d4d4;&quot;&gt; &lt;/span&gt;&lt;span style=&quot;color: #ce9178;&quot;&gt;&quot;New Value for VAR2&quot;&lt;/span&gt;&lt;span style=&quot;color: #d4d4d4;&quot;&gt; PARENT_SCOPE)&lt;/span&gt;&lt;/div&gt;&lt;div&gt;&lt;span style=&quot;color: #569cd6;&quot;&gt;endfunction&lt;/span&gt;&lt;span style=&quot;color: #d4d4d4;&quot;&gt;()&lt;/span&gt;&lt;/div&gt;&lt;br&gt;&lt;div&gt;&lt;span style=&quot;color: #6a9955;&quot;&gt;# Define two global variables&lt;/span&gt;&lt;/div&gt;&lt;div&gt;&lt;span style=&quot;color: #569cd6;&quot;&gt;set&lt;/span&gt;&lt;span style=&quot;color: #d4d4d4;&quot;&gt;(GLOBAL_VAR1 &lt;/span&gt;&lt;span style=&quot;color: #ce9178;&quot;&gt;&quot;Original Value for VAR1&quot;&lt;/span&gt;&lt;span style=&quot;color: #d4d4d4;&quot;&gt;)&lt;/span&gt;&lt;/div&gt;&lt;div&gt;&lt;span style=&quot;color: #569cd6;&quot;&gt;set&lt;/span&gt;&lt;span style=&quot;color: #d4d4d4;&quot;&gt;(GLOBAL_VAR2 &lt;/span&gt;&lt;span style=&quot;color: #ce9178;&quot;&gt;&quot;Original Value for VAR2&quot;&lt;/span&gt;&lt;span style=&quot;color: #d4d4d4;&quot;&gt;)&lt;/span&gt;&lt;/div&gt;&lt;br&gt;&lt;div&gt;&lt;span style=&quot;color: #569cd6;&quot;&gt;message&lt;/span&gt;&lt;span style=&quot;color: #d4d4d4;&quot;&gt;(&lt;/span&gt;&lt;span style=&quot;color: #ce9178;&quot;&gt;&quot;Before function call:&quot;&lt;/span&gt;&lt;span style=&quot;color: #d4d4d4;&quot;&gt;)&lt;/span&gt;&lt;/div&gt;&lt;div&gt;&lt;span style=&quot;color: #569cd6;&quot;&gt;message&lt;/span&gt;&lt;span style=&quot;color: #d4d4d4;&quot;&gt;(&lt;/span&gt;&lt;span style=&quot;color: #ce9178;&quot;&gt;&quot;GLOBAL_VAR1: ${GLOBAL_VAR1}&quot;&lt;/span&gt;&lt;span style=&quot;color: #d4d4d4;&quot;&gt;)&lt;/span&gt;&lt;/div&gt;&lt;div&gt;&lt;span style=&quot;color: #569cd6;&quot;&gt;message&lt;/span&gt;&lt;span style=&quot;color: #d4d4d4;&quot;&gt;(&lt;/span&gt;&lt;span style=&quot;color: #ce9178;&quot;&gt;&quot;GLOBAL_VAR2: ${GLOBAL_VAR2}&quot;&lt;/span&gt;&lt;span style=&quot;color: #d4d4d4;&quot;&gt;)&lt;/span&gt;&lt;/div&gt;&lt;br&gt;&lt;div&gt;&lt;span style=&quot;color: #6a9955;&quot;&gt;# Call the function to modify the global variables&lt;/span&gt;&lt;/div&gt;&lt;div&gt;&lt;span style=&quot;color: #d4d4d4;&quot;&gt;ModifyGlobalVariables(GLOBAL_VAR1 GLOBAL_VAR2)&lt;/span&gt;&lt;/div&gt;&lt;br&gt;&lt;div&gt;&lt;span style=&quot;color: #569cd6;&quot;&gt;message&lt;/span&gt;&lt;span style=&quot;color: #d4d4d4;&quot;&gt;(&lt;/span&gt;&lt;span style=&quot;color: #ce9178;&quot;&gt;&quot;After function call:&quot;&lt;/span&gt;&lt;span style=&quot;color: #d4d4d4;&quot;&gt;)&lt;/span&gt;&lt;/div&gt;&lt;div&gt;&lt;span style=&quot;color: #569cd6;&quot;&gt;message&lt;/span&gt;&lt;span style=&quot;color: #d4d4d4;&quot;&gt;(&lt;/span&gt;&lt;span style=&quot;color: #ce9178;&quot;&gt;&quot;GLOBAL_VAR1: ${GLOBAL_VAR1}&quot;&lt;/span&gt;&lt;span style=&quot;color: #d4d4d4;&quot;&gt;)&lt;/span&gt;&lt;/div&gt;&lt;div&gt;&lt;span style=&quot;color: #569cd6;&quot;&gt;message&lt;/span&gt;&lt;span style=&quot;color: #d4d4d4;&quot;&gt;(&lt;/span&gt;&lt;span style=&quot;color: #ce9178;&quot;&gt;&quot;GLOBAL_VAR2: ${GLOBAL_VAR2}&quot;&lt;/span&gt;&lt;span style=&quot;color: #d4d4d4;&quot;&gt;)&lt;/span&gt;&lt;/div&gt;&lt;/div&gt;" style="text;whiteSpace=wrap;html=1;" vertex="1" parent="1">
          <mxGeometry x="130" y="120" width="930" height="640" as="geometry" />
        </mxCell>
        <mxCell id="yFdaJYSu8_X2br-lyUkt-1" value="&lt;font style=&quot;font-size: 48px;&quot;&gt;returning&lt;/font&gt;" style="text;html=1;strokeColor=none;fillColor=none;align=center;verticalAlign=middle;whiteSpace=wrap;rounded=0;" vertex="1" parent="1">
          <mxGeometry x="530" y="40" width="60" height="30" as="geometry" />
        </mxCell>
        <mxCell id="yFdaJYSu8_X2br-lyUkt-2" value="&lt;div style=&quot;color: rgb(212, 212, 212); background-color: rgb(30, 30, 30); font-family: Consolas, &amp;quot;Courier New&amp;quot;, monospace; font-weight: normal; font-size: 24px; line-height: 32px;&quot;&gt;&lt;div&gt;&lt;span style=&quot;color: #6a9955;&quot;&gt;#A function that increments a variable&lt;/span&gt;&lt;/div&gt;&lt;br&gt;&lt;div&gt;&lt;span style=&quot;color: #569cd6;&quot;&gt;function&lt;/span&gt;&lt;span style=&quot;color: #d4d4d4;&quot;&gt;(IncrementVariable VAR)&lt;/span&gt;&lt;/div&gt;&lt;div&gt;&lt;span style=&quot;color: #569cd6;&quot;&gt;&amp;nbsp; &amp;nbsp; math&lt;/span&gt;&lt;span style=&quot;color: #d4d4d4;&quot;&gt;(EXPR &lt;/span&gt;&lt;span style=&quot;color: #569cd6;&quot;&gt;${VAR}&lt;/span&gt;&lt;span style=&quot;color: #d4d4d4;&quot;&gt; &lt;/span&gt;&lt;span style=&quot;color: #ce9178;&quot;&gt;&quot;${${VAR}} + 1&quot;&lt;/span&gt;&lt;span style=&quot;color: #d4d4d4;&quot;&gt;)&lt;/span&gt;&lt;/div&gt;&lt;div&gt;&lt;span style=&quot;color: #569cd6;&quot;&gt;&amp;nbsp; &amp;nbsp; set&lt;/span&gt;&lt;span style=&quot;color: #d4d4d4;&quot;&gt;(&lt;/span&gt;&lt;span style=&quot;color: #569cd6;&quot;&gt;${VAR}&lt;/span&gt;&lt;span style=&quot;color: #d4d4d4;&quot;&gt; ${&lt;/span&gt;&lt;span style=&quot;color: #569cd6;&quot;&gt;${VAR}&lt;/span&gt;&lt;span style=&quot;color: #d4d4d4;&quot;&gt;} PARENT_SCOPE)&lt;/span&gt;&lt;/div&gt;&lt;div&gt;&lt;span style=&quot;color: #569cd6;&quot;&gt;endfunction&lt;/span&gt;&lt;span style=&quot;color: #d4d4d4;&quot;&gt;()&lt;/span&gt;&lt;/div&gt;&lt;br&gt;&lt;div&gt;&lt;span style=&quot;color: #6a9955;&quot;&gt;# Define a variable&lt;/span&gt;&lt;/div&gt;&lt;div&gt;&lt;span style=&quot;color: #569cd6;&quot;&gt;set&lt;/span&gt;&lt;span style=&quot;color: #d4d4d4;&quot;&gt;(MyVariable 0)&lt;/span&gt;&lt;/div&gt;&lt;br&gt;&lt;div&gt;&lt;span style=&quot;color: #6a9955;&quot;&gt;# Call the function to increment the variable&lt;/span&gt;&lt;/div&gt;&lt;div&gt;&lt;span style=&quot;color: #d4d4d4;&quot;&gt;IncrementVariable(MyVariable)&lt;/span&gt;&lt;/div&gt;&lt;div&gt;&lt;span style=&quot;color: #6a9955;&quot;&gt;#Print the value in the variable&lt;/span&gt;&lt;/div&gt;&lt;div&gt;&lt;span style=&quot;color: #569cd6;&quot;&gt;message&lt;/span&gt;&lt;span style=&quot;color: #d4d4d4;&quot;&gt;(&lt;/span&gt;&lt;span style=&quot;color: #ce9178;&quot;&gt;&quot;MyVariable: ${MyVariable}&quot;&lt;/span&gt;&lt;span style=&quot;color: #d4d4d4;&quot;&gt;)&lt;/span&gt;&lt;/div&gt;&lt;br&gt;&lt;div&gt;&lt;span style=&quot;color: #6a9955;&quot;&gt;# Call the function to increment the variable&lt;/span&gt;&lt;/div&gt;&lt;div&gt;&lt;span style=&quot;color: #d4d4d4;&quot;&gt;IncrementVariable(MyVariable)&lt;/span&gt;&lt;/div&gt;&lt;div&gt;&lt;span style=&quot;color: #6a9955;&quot;&gt;#Print the value in the variable&lt;/span&gt;&lt;/div&gt;&lt;div&gt;&lt;span style=&quot;color: #569cd6;&quot;&gt;message&lt;/span&gt;&lt;span style=&quot;color: #d4d4d4;&quot;&gt;(&lt;/span&gt;&lt;span style=&quot;color: #ce9178;&quot;&gt;&quot;MyVariable: ${MyVariable}&quot;&lt;/span&gt;&lt;span style=&quot;color: #d4d4d4;&quot;&gt;)&lt;/span&gt;&lt;/div&gt;&lt;/div&gt;" style="text;whiteSpace=wrap;html=1;" vertex="1" parent="1">
          <mxGeometry x="1630" y="460" width="600" height="620" as="geometry" />
        </mxCell>
        <mxCell id="yFdaJYSu8_X2br-lyUkt-4" value="&lt;div style=&quot;color: rgb(212, 212, 212); background-color: rgb(30, 30, 30); font-family: Consolas, &amp;quot;Courier New&amp;quot;, monospace; font-weight: normal; font-size: 24px; line-height: 32px;&quot;&gt;&lt;div&gt;&lt;span style=&quot;color: #6a9955;&quot;&gt;# A loop that calls the IncrementVariable function twice&lt;/span&gt;&lt;/div&gt;&lt;div&gt;&lt;span style=&quot;color: #569cd6;&quot;&gt;foreach&lt;/span&gt;&lt;span style=&quot;color: #d4d4d4;&quot;&gt;(loop_var RANGE 1)&lt;/span&gt;&lt;/div&gt;&lt;div&gt;&lt;span style=&quot;color: #569cd6;&quot;&gt;&amp;nbsp; &amp;nbsp; message&lt;/span&gt;&lt;span style=&quot;color: #d4d4d4;&quot;&gt;(&lt;/span&gt;&lt;span style=&quot;color: #ce9178;&quot;&gt;&quot;loop_var: ${loop_var}&quot;&lt;/span&gt;&lt;span style=&quot;color: #d4d4d4;&quot;&gt;)&lt;/span&gt;&lt;/div&gt;&lt;div&gt;&lt;span style=&quot;color: #d4d4d4;&quot;&gt;&amp;nbsp; &amp;nbsp; IncrementVariable(MyVariable)&lt;/span&gt;&lt;/div&gt;&lt;div&gt;&lt;span style=&quot;color: #569cd6;&quot;&gt;endforeach&lt;/span&gt;&lt;span style=&quot;color: #d4d4d4;&quot;&gt;()&lt;/span&gt;&lt;/div&gt;&lt;br&gt;&lt;div&gt;&lt;span style=&quot;color: #569cd6;&quot;&gt;message&lt;/span&gt;&lt;span style=&quot;color: #d4d4d4;&quot;&gt;(&lt;/span&gt;&lt;span style=&quot;color: #ce9178;&quot;&gt;&quot;MyVariable: ${MyVariable}&quot;&lt;/span&gt;&lt;span style=&quot;color: #d4d4d4;&quot;&gt;)&lt;/span&gt;&lt;/div&gt;&lt;/div&gt;" style="text;whiteSpace=wrap;html=1;" vertex="1" parent="1">
          <mxGeometry x="1580" y="1160" width="670" height="280" as="geometry" />
        </mxCell>
        <mxCell id="yFdaJYSu8_X2br-lyUkt-6" value="&lt;font color=&quot;#c51111&quot; style=&quot;font-size: 18px;&quot;&gt;If we don&#39;t use PARENT_SCOPE??&lt;/font&gt;" style="rounded=0;whiteSpace=wrap;html=1;" vertex="1" parent="1">
          <mxGeometry x="810" y="190" width="310" height="60" as="geometry" />
        </mxCell>
      </root>
    </mxGraphModel>
  </diagram>
  <diagram id="4UfIY8-VRpDWN6aeK1tE" name="macros">
    <mxGraphModel dx="1418" dy="820" grid="1" gridSize="10" guides="1" tooltips="1" connect="1" arrows="1" fold="1" page="1" pageScale="1" pageWidth="3300" pageHeight="4681" math="0" shadow="0">
      <root>
        <mxCell id="0" />
        <mxCell id="1" parent="0" />
        <mxCell id="VFbwh2z-I3wxzvx_ZTqj-3" value="" style="rounded=0;whiteSpace=wrap;html=1;fillColor=#1e1e1e;strokeColor=#d6b656;" vertex="1" parent="1">
          <mxGeometry x="1050" y="55" width="610" height="985" as="geometry" />
        </mxCell>
        <mxCell id="VFbwh2z-I3wxzvx_ZTqj-1" value="" style="rounded=0;whiteSpace=wrap;html=1;fillColor=#1e1e1e;strokeColor=#d6b656;" vertex="1" parent="1">
          <mxGeometry x="110" y="60" width="740" height="700" as="geometry" />
        </mxCell>
        <mxCell id="6zVW2o2NoF4kBbKU-Mpy-1" value="&lt;div style=&quot;color: rgb(212, 212, 212); background-color: rgb(30, 30, 30); font-family: Consolas, &amp;quot;Courier New&amp;quot;, monospace; font-weight: normal; font-size: 24px; line-height: 32px;&quot;&gt;&lt;div&gt;&lt;span style=&quot;color: #6a9955;&quot;&gt;# A macro modifying a variable in the global scope&lt;/span&gt;&lt;/div&gt;&lt;div&gt;&lt;span style=&quot;color: #569cd6;&quot;&gt;macro&lt;/span&gt;&lt;span style=&quot;color: #d4d4d4;&quot;&gt;(ModifyGlobalVariables VAR1 VAR2)&lt;/span&gt;&lt;/div&gt;&lt;div&gt;&lt;span style=&quot;color: #569cd6;&quot;&gt;&amp;nbsp; &amp;nbsp; set&lt;/span&gt;&lt;span style=&quot;color: #d4d4d4;&quot;&gt;(&lt;/span&gt;&lt;span style=&quot;color: #569cd6;&quot;&gt;${VAR1}&lt;/span&gt;&lt;span style=&quot;color: #d4d4d4;&quot;&gt; &lt;/span&gt;&lt;span style=&quot;color: #ce9178;&quot;&gt;&quot;New Value for VAR1&quot;&lt;/span&gt;&lt;span style=&quot;color: #d4d4d4;&quot;&gt; )&lt;/span&gt;&lt;/div&gt;&lt;div&gt;&lt;span style=&quot;color: #569cd6;&quot;&gt;&amp;nbsp; &amp;nbsp; set&lt;/span&gt;&lt;span style=&quot;color: #d4d4d4;&quot;&gt;(&lt;/span&gt;&lt;span style=&quot;color: #569cd6;&quot;&gt;${VAR2}&lt;/span&gt;&lt;span style=&quot;color: #d4d4d4;&quot;&gt; &lt;/span&gt;&lt;span style=&quot;color: #ce9178;&quot;&gt;&quot;New Value for VAR2&quot;&lt;/span&gt;&lt;span style=&quot;color: #d4d4d4;&quot;&gt; )&lt;/span&gt;&lt;/div&gt;&lt;div&gt;&lt;span style=&quot;color: #569cd6;&quot;&gt;endmacro&lt;/span&gt;&lt;span style=&quot;color: #d4d4d4;&quot;&gt;()&lt;/span&gt;&lt;/div&gt;&lt;br&gt;&lt;div&gt;&lt;span style=&quot;color: #6a9955;&quot;&gt;# Define two global variables&lt;/span&gt;&lt;/div&gt;&lt;div&gt;&lt;span style=&quot;color: #569cd6;&quot;&gt;set&lt;/span&gt;&lt;span style=&quot;color: #d4d4d4;&quot;&gt;(GLOBAL_VAR1 &lt;/span&gt;&lt;span style=&quot;color: #ce9178;&quot;&gt;&quot;Original Value for VAR1&quot;&lt;/span&gt;&lt;span style=&quot;color: #d4d4d4;&quot;&gt;)&lt;/span&gt;&lt;/div&gt;&lt;div&gt;&lt;span style=&quot;color: #569cd6;&quot;&gt;set&lt;/span&gt;&lt;span style=&quot;color: #d4d4d4;&quot;&gt;(GLOBAL_VAR2 &lt;/span&gt;&lt;span style=&quot;color: #ce9178;&quot;&gt;&quot;Original Value for VAR2&quot;&lt;/span&gt;&lt;span style=&quot;color: #d4d4d4;&quot;&gt;)&lt;/span&gt;&lt;/div&gt;&lt;br&gt;&lt;div&gt;&lt;span style=&quot;color: #569cd6;&quot;&gt;message&lt;/span&gt;&lt;span style=&quot;color: #d4d4d4;&quot;&gt;(&lt;/span&gt;&lt;span style=&quot;color: #ce9178;&quot;&gt;&quot;Before mcro call:&quot;&lt;/span&gt;&lt;span style=&quot;color: #d4d4d4;&quot;&gt;)&lt;/span&gt;&lt;/div&gt;&lt;div&gt;&lt;span style=&quot;color: #569cd6;&quot;&gt;message&lt;/span&gt;&lt;span style=&quot;color: #d4d4d4;&quot;&gt;(&lt;/span&gt;&lt;span style=&quot;color: #ce9178;&quot;&gt;&quot;GLOBAL_VAR1: ${GLOBAL_VAR1}&quot;&lt;/span&gt;&lt;span style=&quot;color: #d4d4d4;&quot;&gt;)&lt;/span&gt;&lt;/div&gt;&lt;div&gt;&lt;span style=&quot;color: #569cd6;&quot;&gt;message&lt;/span&gt;&lt;span style=&quot;color: #d4d4d4;&quot;&gt;(&lt;/span&gt;&lt;span style=&quot;color: #ce9178;&quot;&gt;&quot;GLOBAL_VAR2: ${GLOBAL_VAR2}&quot;&lt;/span&gt;&lt;span style=&quot;color: #d4d4d4;&quot;&gt;)&lt;/span&gt;&lt;/div&gt;&lt;br&gt;&lt;div&gt;&lt;span style=&quot;color: #6a9955;&quot;&gt;# Call the function to modify the global variables&lt;/span&gt;&lt;/div&gt;&lt;div&gt;&lt;span style=&quot;color: #d4d4d4;&quot;&gt;ModifyGlobalVariables(GLOBAL_VAR1 GLOBAL_VAR2)&lt;/span&gt;&lt;/div&gt;&lt;br&gt;&lt;div&gt;&lt;span style=&quot;color: #569cd6;&quot;&gt;message&lt;/span&gt;&lt;span style=&quot;color: #d4d4d4;&quot;&gt;(&lt;/span&gt;&lt;span style=&quot;color: #ce9178;&quot;&gt;&quot;After macro call:&quot;&lt;/span&gt;&lt;span style=&quot;color: #d4d4d4;&quot;&gt;)&lt;/span&gt;&lt;/div&gt;&lt;div&gt;&lt;span style=&quot;color: #569cd6;&quot;&gt;message&lt;/span&gt;&lt;span style=&quot;color: #d4d4d4;&quot;&gt;(&lt;/span&gt;&lt;span style=&quot;color: #ce9178;&quot;&gt;&quot;GLOBAL_VAR1: ${GLOBAL_VAR1}&quot;&lt;/span&gt;&lt;span style=&quot;color: #d4d4d4;&quot;&gt;)&lt;/span&gt;&lt;/div&gt;&lt;div&gt;&lt;span style=&quot;color: #569cd6;&quot;&gt;message&lt;/span&gt;&lt;span style=&quot;color: #d4d4d4;&quot;&gt;(&lt;/span&gt;&lt;span style=&quot;color: #ce9178;&quot;&gt;&quot;GLOBAL_VAR2: ${GLOBAL_VAR2}&quot;&lt;/span&gt;&lt;span style=&quot;color: #d4d4d4;&quot;&gt;)&lt;/span&gt;&lt;/div&gt;&lt;/div&gt;" style="text;whiteSpace=wrap;html=1;" vertex="1" parent="1">
          <mxGeometry x="170" y="80" width="670" height="650" as="geometry" />
        </mxCell>
        <mxCell id="VFbwh2z-I3wxzvx_ZTqj-4" value="&lt;div style=&quot;color: rgb(212, 212, 212); background-color: rgb(30, 30, 30); font-family: Consolas, &amp;quot;Courier New&amp;quot;, monospace; font-weight: normal; font-size: 24px; line-height: 32px;&quot;&gt;&lt;div&gt;&lt;span style=&quot;color: #6a9955;&quot;&gt;#Set up a macro that increments a variable&lt;/span&gt;&lt;/div&gt;&lt;br&gt;&lt;div&gt;&lt;span style=&quot;color: #569cd6;&quot;&gt;macro&lt;/span&gt;&lt;span style=&quot;color: #d4d4d4;&quot;&gt;(IncrementVariable VAR)&lt;/span&gt;&lt;/div&gt;&lt;div&gt;&lt;span style=&quot;color: #569cd6;&quot;&gt;&amp;nbsp; &amp;nbsp; math&lt;/span&gt;&lt;span style=&quot;color: #d4d4d4;&quot;&gt;(EXPR &lt;/span&gt;&lt;span style=&quot;color: #569cd6;&quot;&gt;${VAR}&lt;/span&gt;&lt;span style=&quot;color: #d4d4d4;&quot;&gt; &lt;/span&gt;&lt;span style=&quot;color: #ce9178;&quot;&gt;&quot;${${VAR}} + 1&quot;&lt;/span&gt;&lt;span style=&quot;color: #d4d4d4;&quot;&gt;)&lt;/span&gt;&lt;/div&gt;&lt;div&gt;&lt;span style=&quot;color: #d4d4d4;&quot;&gt;&amp;nbsp; &amp;nbsp; &lt;/span&gt;&lt;span style=&quot;color: #6a9955;&quot;&gt;# set(${VAR} ${${VAR}} PARENT_SCOPE)&lt;/span&gt;&lt;/div&gt;&lt;div&gt;&lt;span style=&quot;color: #569cd6;&quot;&gt;endmacro&lt;/span&gt;&lt;span style=&quot;color: #d4d4d4;&quot;&gt;()&lt;/span&gt;&lt;/div&gt;&lt;br&gt;&lt;div&gt;&lt;span style=&quot;color: #6a9955;&quot;&gt;# Define a variable&lt;/span&gt;&lt;/div&gt;&lt;div&gt;&lt;span style=&quot;color: #569cd6;&quot;&gt;set&lt;/span&gt;&lt;span style=&quot;color: #d4d4d4;&quot;&gt;(MyVariable 0)&lt;/span&gt;&lt;/div&gt;&lt;br&gt;&lt;div&gt;&lt;span style=&quot;color: #6a9955;&quot;&gt;# Call the macro to increment the variable&lt;/span&gt;&lt;/div&gt;&lt;div&gt;&lt;span style=&quot;color: #d4d4d4;&quot;&gt;IncrementVariable(MyVariable)&lt;/span&gt;&lt;/div&gt;&lt;div&gt;&lt;span style=&quot;color: #6a9955;&quot;&gt;#Print the value in the variable&lt;/span&gt;&lt;/div&gt;&lt;div&gt;&lt;span style=&quot;color: #569cd6;&quot;&gt;message&lt;/span&gt;&lt;span style=&quot;color: #d4d4d4;&quot;&gt;(&lt;/span&gt;&lt;span style=&quot;color: #ce9178;&quot;&gt;&quot;MyVariable: ${MyVariable}&quot;&lt;/span&gt;&lt;span style=&quot;color: #d4d4d4;&quot;&gt;)&lt;/span&gt;&lt;/div&gt;&lt;br&gt;&lt;div&gt;&lt;span style=&quot;color: #6a9955;&quot;&gt;# Call the macro to increment the variable&lt;/span&gt;&lt;/div&gt;&lt;div&gt;&lt;span style=&quot;color: #d4d4d4;&quot;&gt;IncrementVariable(MyVariable)&lt;/span&gt;&lt;/div&gt;&lt;div&gt;&lt;span style=&quot;color: #6a9955;&quot;&gt;#Print the value in the variable&lt;/span&gt;&lt;/div&gt;&lt;div&gt;&lt;span style=&quot;color: #569cd6;&quot;&gt;message&lt;/span&gt;&lt;span style=&quot;color: #d4d4d4;&quot;&gt;(&lt;/span&gt;&lt;span style=&quot;color: #ce9178;&quot;&gt;&quot;MyVariable: ${MyVariable}&quot;&lt;/span&gt;&lt;span style=&quot;color: #d4d4d4;&quot;&gt;)&lt;/span&gt;&lt;/div&gt;&lt;br&gt;&lt;br&gt;&lt;div&gt;&lt;span style=&quot;color: #6a9955;&quot;&gt;#Write a loop that calls the IncrementVariable function twice&lt;/span&gt;&lt;/div&gt;&lt;div&gt;&lt;span style=&quot;color: #569cd6;&quot;&gt;foreach&lt;/span&gt;&lt;span style=&quot;color: #d4d4d4;&quot;&gt;(loop_var RANGE 1)&lt;/span&gt;&lt;/div&gt;&lt;div&gt;&lt;span style=&quot;color: #569cd6;&quot;&gt;&amp;nbsp; &amp;nbsp; message&lt;/span&gt;&lt;span style=&quot;color: #d4d4d4;&quot;&gt;(&lt;/span&gt;&lt;span style=&quot;color: #ce9178;&quot;&gt;&quot;loop_var: ${loop_var}&quot;&lt;/span&gt;&lt;span style=&quot;color: #d4d4d4;&quot;&gt;)&lt;/span&gt;&lt;/div&gt;&lt;div&gt;&lt;span style=&quot;color: #d4d4d4;&quot;&gt;&amp;nbsp; &amp;nbsp; IncrementVariable(MyVariable)&lt;/span&gt;&lt;/div&gt;&lt;div&gt;&lt;span style=&quot;color: #569cd6;&quot;&gt;endforeach&lt;/span&gt;&lt;span style=&quot;color: #d4d4d4;&quot;&gt;()&lt;/span&gt;&lt;/div&gt;&lt;br&gt;&lt;div&gt;&lt;span style=&quot;color: #569cd6;&quot;&gt;message&lt;/span&gt;&lt;span style=&quot;color: #d4d4d4;&quot;&gt;(&lt;/span&gt;&lt;span style=&quot;color: #ce9178;&quot;&gt;&quot;MyVariable: ${MyVariable}&quot;&lt;/span&gt;&lt;span style=&quot;color: #d4d4d4;&quot;&gt;)&lt;/span&gt;&lt;/div&gt;&lt;/div&gt;" style="text;whiteSpace=wrap;html=1;" vertex="1" parent="1">
          <mxGeometry x="1080" y="70" width="560" height="1080" as="geometry" />
        </mxCell>
      </root>
    </mxGraphModel>
  </diagram>
</mxfile>
